<?xml version="1.0" encoding="utf-8"?>
<!-- Generator: Adobe Illustrator 27.1.1, SVG Export Plug-In . SVG Version: 6.00 Build 0)  -->
<svg version="1.1" id="Capa_1" xmlns="http://www.w3.org/2000/svg" xmlns:xlink="http://www.w3.org/1999/xlink" x="0px" y="0px"
	 viewBox="0 0 1080 115" style="enable-background:new 0 0 1080 115;" xml:space="preserve">
<style type="text/css">
	.st0{clip-path:url(#SVGID_00000144307100041395314810000013852588061118811793_);}
	.st1{clip-path:url(#SVGID_00000031913598202456356760000017191446629801791648_);}
	.st2{clip-path:url(#SVGID_00000067213123814754345360000013758457340742249642_);}
	.st3{clip-path:url(#SVGID_00000162341168992463920110000003690259769593282726_);}
	.st4{clip-path:url(#SVGID_00000038393864323229900260000004347646657359194265_);}
	.st5{clip-path:url(#SVGID_00000158750400773887719780000009156526713097966992_);}
	.st6{clip-path:url(#SVGID_00000145749642230070580970000017424215631987384205_);}
	.st7{clip-path:url(#SVGID_00000092419586193222657240000007787250765001703854_);}
	.st8{clip-path:url(#SVGID_00000063596945531985798800000009087965478628828074_);}
	.st9{clip-path:url(#SVGID_00000002374254085757936060000006087799999517778323_);}
	.st10{fill:#131313;}
	.st11{clip-path:url(#SVGID_00000162324810187909743720000016090722436020183487_);}
	.st12{clip-path:url(#SVGID_00000018214953547583474030000001035287886906543295_);}
	.st13{clip-path:url(#SVGID_00000079475984639869909550000010404651950918529939_);}
	.st14{clip-path:url(#SVGID_00000152231359083983534110000006001099728915968178_);}
	.st15{clip-path:url(#SVGID_00000122710660329386380410000015404270582696617906_);}
	.st16{clip-path:url(#SVGID_00000057129319608299419640000012723490734583610795_);}
</style>
<g>
	<defs>
		<rect id="SVGID_1_" x="138.1" y="-289" width="356.6" height="376"/>
	</defs>
	<clipPath id="SVGID_00000144321023878368350200000001178463647856557953_">
		<use xlink:href="#SVGID_1_"  style="overflow:visible;"/>
	</clipPath>
	<g style="clip-path:url(#SVGID_00000144321023878368350200000001178463647856557953_);">
		<g>
			<defs>
				<path id="SVGID_00000106839337874493396900000001027567235001585026_" d="M138.9-412.9c1.7,17.6,2.1,35.1,2.3,52.9
					c1,64,0.6,128.1,0,192.1c-0.6,64.3-1.4,128.5-1.4,193c0,0.6,0,1.2-0.2,1.9c0.6,0.2,1.2,0.6,1.9,1c0.8,0.6,1.4,1.7,2.3,2.7
					c1.9,2.3,3.7,4.5,5.4,6.8c1.9,2.7,3.7,5.2,5.6,7.9c0.8,1.2,1.7,2.5,2.5,3.5c0.6,0.8,1.7,1.2,2.3,1.9c2.1,1.7,4.3,3.3,6.4,5
					c2.1,1.7,4.1,3.1,6.6,4.1c5.6,2.5,10.9,5.2,16.5,7.6c3.1,1.4,6.2,2.7,9.5,4.1c0.2,0.2,0.8,0,1,0h1.2l0.2,0.2
					c0.4-1,0.8-1.9,1.4-2.9c0.6-0.8,1-2.3,2.5-2.3c0,0,0.2,0,0.2-0.2c0.6-1,1.7-1.2,2.9-1.4c1.2-0.2,2.3-0.8,3.3-1.2
					c0.2,0,0.2-0.2,0.4-0.2c1.4,0.4,2.5-0.6,3.7-1h0.2c1.2,0,2.3-0.6,3.5-0.8c1-0.2,2.1-0.2,3.1-0.8c1-0.6,2.3-1,3.3-1.4
					c1-0.4,2.1-0.6,3.1-1h1c1,0,1.9,0,2.7-0.6h0.4c1,0,2.3,0.2,3.3,0.2h0.8c1-0.2,1.4,0.6,2.1,1c1,1.2,2.3,1.4,3.9,1.2
					c1.4-0.2,2.7-0.4,4.1-0.4c0.6,0,1.4,0.2,2.1,0.4c0.6,0.2,1,0.4,1.7,0.6l0.6,0.6c0,0,0.2,0.6,0.4,0.8c0.4,0.2,0.8,0.2,1,0.4
					l0.2,0.2c1-0.6,1.4,0.4,2.1,0.6c0.8,0.4,1.4,0.8,2.3,1.4c0-0.2,0-0.4,0.2-0.6c1.2,0.2,2.7,0.2,3.9,1c0.2-0.4,0.6-0.8,1-1.2
					c0,0,0-0.2,0.2-0.2c1-0.2,1.7-0.8,1.9-1.9c0.2-0.4,0.2-0.8,0.2-1c0.8-0.4,1.4-0.8,2.3-1.2v-0.4c-0.6-1-0.6-1.2,0.4-1.7
					c0.2-0.2,0.2-0.4,0.4-0.4c0.4-0.2,0.8-0.4,1-0.6c0,0,0,0.2,0.2,0.2v-0.4c1.2-0.4,2.5-0.8,3.7-1.4c0.6-0.4,1.2-0.6,2.1-0.2
					c0.4,0.2,0.8,0,1.2-0.2c1-0.4,2.1-0.6,3.1-1c0.8-0.2,1.4-0.6,2.3-1c0,0,0.2-0.4,0-0.6c0-0.2-0.2-0.6-0.2-0.8
					c0.6-0.4,1-0.8,1.4-0.8c0.6-0.2,1.4-0.2,2.3-0.4c0.6-1.9,1.9-2.3,3.3-1.7l0.4-0.4c0.2,0.2,0.2,0.2,0.2,0.4
					c0.6-0.4,1.2-0.8,1.9-1c0.6-0.4,1.2-0.8,2.1-0.4c0-1,0.6-1,1.2-0.8c0.4,0,1-0.2,1.4-0.4c0.2,0,0.6-0.2,0.8,0
					c0.8,0.6,2.1,0.8,2.9,1.9c0.6,0.8,1.7,1.2,2.1,2.5c0.2,0.4,1,0.8,1.4,1c0,0,0.2,0,0.4,0.2c0.2,0.6,0.8,0.4,1.2,0.2
					c0.4,0,0.8-0.2,1,0.4c0,0.2,0.6,0.4,0.8,0.6c0.6,0.4,1.2,0.8,1.7,1.2c0.2,0.2,0.4,0.4,0.4,0.6c0,0.6,0.6,1,1.2,1
					c0.8,0.2,1.4,0.2,2.3,0.4c0.2,0,0.2,0.4,0.4,0.4c0.2,0.4,0.4,1,1.2,0.6c0.4-0.2,1.7,0.2,1.9,0.6c0.4,1.4,1.9,1.4,2.9,1.9
					c0.2,0,0.4,0,0.4,0.2c0.6,0.8,1.4,1,2.3,1.4c0.8,0.4,1.7,1.2,2.5,2.1l1,1c0.2,0.2,0.4,0.2,0.6,0.2c0.6,0,1.2-0.2,1.7,0.4
					c0,0,0.2,0.2,0.4,0.2c1.7-0.2,2.7,0.8,3.7,1.9c0.4,0.4,1.2,0.6,1.7,0.6c1.2,0.4,2.7,0.6,3.7,1.4c0.6,0.4,1.4,1,2.1,1
					c1,0,1.4,0.8,1.9,1.4c1.2,0.2,2.5,0.2,3.1,1.4c0,0.2,0.2,0.2,0.4,0.2c0.8,0.2,1.7,0.4,2.5,0.8c0.4,0.2,0.8,0.6,1.4,1
					c0.2,0,0.2,0.2,0.4,0.2c1.4,0,1.9,1,2.7,1.9c1.2,1,2.7,2.1,3.7,3.3c0.6,0.8,1.7,1.2,2.3,1.7l1.2,0.6c0.4,0.4,0.8,0.8,1.4,1.2
					c0.6,0.2,0.8,1,1.7,0.8c0.4,0,0.8,0.2,1.2,0.4c0.6,0.4,0.8,0.8,1.7,0.8c0.4,0,0.8,0.4,1,0.6c1,0.4,2.1,0.4,2.7-0.8l0.2-0.2
					c0.8,0.4,0.8-0.4,1-0.8c0.2-0.2,0.6-0.4,0.8-0.6c0.4-0.4,0.8-0.6,1.4-1c0.2-0.2,0.6-0.4,0.8-0.4c1,0,1.7-0.4,2.5-1.2
					c0.6-0.6,1.7-1,2.5-1.4c0.8-0.4,1.7-0.8,2.7-1c0.6-0.2,1.2-0.2,1.9-0.2h0.4c0.8-0.4,1.7-1,2.7-1.4h0.6c1,0.4,2.1,0.4,3.1-0.4
					c0.2-0.2,0.6-0.4,0.8-0.6c1,0.4,2.1,1.2,3.3,1.2c0.4,0,1-0.2,1.4-0.4c0.8,0,1.7,0,2.3-0.2c0.8-0.2,1.9,0,2.7-0.4
					c0.4-1,0.6-1,1.7-0.8c1.2,0.2,2.1,0,2.9-1c0.4-0.6,1.4-0.6,2.1-1c0.2,0,0.4-0.2,0.6-0.2c0.4-0.2,0.6-0.2,1-0.4
					c1-0.4,2.1-0.6,3.1-1.2c1-0.6,1.9-1,2.9-0.2h0.4c0.4-0.2,0.6-0.2,1-0.4c0-0.6,0-1.4,0.8-2.1c0.2-0.2,0.2-0.6,0.6-0.8
					c0.4-0.4,1-0.4,1.4-0.2c0.2,0.2,0.6,0,0.8,0c1.2-0.2,2.7-0.2,3.9-0.4c1.2-0.2,2.5-0.4,3.7-0.8c0.8-0.4,1.7-0.2,2.5-0.2
					c1.7,0.2,3.1,0.2,4.5-0.6l-0.4-0.4c0.4-0.2,0.8-0.2,1.4-0.2c0.4,0.6,1,0.2,1.4-0.2c0.6-0.6,1.2-0.4,2.1-0.4
					c0.8,0.2,1.9-0.2,2.9-0.4c0.2,0,0.4-0.4,0.4-0.6c0.4,0,0.8-0.2,1.4-0.2h0.8c0.8,0.4,1.7,0.4,2.5,0c0.2-0.2,0.6-0.2,0.8-0.2
					c0.6-0.2,1.2,0,1.7-0.6c0.2-0.2,0.6,0,1-0.2h6c0.8,0,1.9,0.2,2.7,0.4c1,0.2,1.9,0,2.7-0.2h1.4c0.6,0,1.2,0.2,1.9,0
					c0.4,0,0.6-0.4,0.8-0.8c0.4-0.6,1-0.8,1.9-0.8c0.6,0,1.2-0.2,1.9-0.4h0.4c0.8,1.2,2.1,0.4,3.1,0.6h0.4c0.8,0.4,1.9,0.8,2.7,1
					c1,0.2,1.9,1.2,2.7,1.2c1.4,0,2.7,1,3.9,1.2c1,0.2,2.1,0.6,3.1,1c0.4,0.2,1,0,1.4,0c1.2,0.2,2.5,0.2,3.7,0.4h0.2
					c1.4-0.2,2.9,0.2,4.3,0.2c0.2-36.8-0.8-73.5-2.1-110.3c-1.2-34.9-2.5-69.8-2.7-104.8c0-17.6,0.2-34.9,0.6-52.5
					c0.6-17.6,1.9-35.1,2.7-52.7c2.5-55.6,1-111.4,0.2-166.9c-0.6-0.2-1-0.4-1.4-0.6c-0.6-0.4-1.2-0.6-2.1-0.4h-1.2
					c-0.6,0-1.4,0-1.9,0.8c0,0-0.2,0.2-0.4,0.2h-0.8c-0.2-0.4,0.2-1.2-0.8-1c-0.4,0-1,0.2-1.4,0.2h-3.1c-0.2-0.4-0.4-0.8-0.8-1.4
					c-0.2-0.4-0.4-0.6-1-0.2c-0.4,0.2-0.6,0.2-0.8-0.2c-0.6-1-1.2-1.9-2.5-2.1c-0.2,0-0.4-0.4-0.6-0.6c-0.4-0.4-0.6-0.8-1.2-0.8
					c-0.2,0-0.6-0.4-0.6-0.6c-0.2-0.8-0.2-1.4-0.2-2.3c-0.2-0.8-0.6-1.7-1.2-2.1c-1-0.6-1.9-1.4-2.9-2.1c-0.2-0.2-0.6-0.4-1-0.4
					c-0.6-0.2-1.2-0.4-1.9-0.4c-0.6,0-1.4,0-2.1,0.4c-1.2,0.6-2.3-0.2-3.3-0.2c-1-0.2-2.1-0.6-2.9-0.8H454c-2.3,0.4-4.1-0.8-6.4-1
					c-0.6,0-1.2-0.6-1.9-1c-0.4-0.4-0.8-0.4-1.4-0.2c-0.8,0.2-1.7,0-2.5,0.2c-1.2,0.4-2.3-0.6-3.5-0.6c-1,0.2-2.1,0.2-3.1,0.4
					l-2.5,0.6c-1.7,0.8-2.9-0.2-4.3-0.6c-1-0.2-1.7-0.6-2.5-1.2c-0.8-0.6-1.7,0-2.3,0c-0.6,0-1,0.6-1.4,0.8
					c-0.6,0.2-1.2,0.2-1.9,0.2c-0.6,0-1.4-0.2-2.1,0c-1,0.4-1.9,1-2.7,1.4c-0.2,0.2-0.4,0.4-0.6,0.4c-1.4,0.8-3.1,1-5,1
					c-1,0-2.1,0-3.1-0.2c-0.6,0-1-0.6-1.4-0.6c-1.4-0.2-2.7-0.2-4.1-0.2c-0.2,0-0.4,0.2-0.6,0.2c-0.8,0.4-1.7,1-2.5,1.4
					c-1.4,0.4-2.9,0.8-4.3,1h-0.6c-1.2-0.6-2.3,0-3.5,0.2c-1.2,0.4-2.5,1-3.7,1.4c-0.4,0.2-0.8,0-1.2-0.2c-0.6-0.2-1-0.2-1.4,0.2
					c-0.2,0.2-0.4,0.2-0.6,0.2c-0.6,0.2-1.2,0.2-1.7,0.4c-0.8,0.6-1.7,0.4-2.5,0.8c-0.8,0.4-1.7,0.4-2.3,1c-0.2,0.2-0.6,0.2-1,0.2
					c-1,0.2-1.9,0.8-2.5,1.7c-0.8,0.8-1.7,1.4-2.5,2.1c-0.2,0.2-0.8,0.2-1,0.2c-0.8,0-1.7-0.2-2.3-0.4c-0.4,0-0.6-0.2-1-0.2
					c-1.2,0.6-2.7,0.2-3.9,0.2c-0.2,0-0.6-0.2-0.8-0.4c-0.8-0.6-1.7-0.6-2.5-0.2c-0.6,0.2-1.2,0.2-1.7-0.2c-0.8-0.6-1.9-1-2.9-1.2
					c-0.8-0.2-1.7-0.6-2.5-1c-0.4-0.2-0.8,0-1.2,0s-0.6,0.2-1,0.2c-1.2,0.2-2.5,0.6-3.5,0.4c-1.4-0.4-2.9-0.2-4.1-1
					c-0.6-0.4-0.8,0-1.2,0c-0.2,0-0.4,0-0.8,0.2c-0.2,0.6-1,1-2.1,0.6c-0.6-0.2-1-0.2-1.7,0c-0.6,0.2-1.2,0.2-2.1,0.4h-0.2
					c-1.7,1-3.3,0.2-5.2,0.2h-1c-1.2,0.2-1.9-0.8-2.7-1.4c-0.8-0.6-1.7-1.4-2.5-1.9c-0.2-0.2-0.8,0-1.2,0h-1.9l-0.2-0.2
					c-1.4,0.4-2.3-0.4-3.3-1.2c-0.6-0.4-1.4-0.8-2.1-1c-0.8-0.4-1.9-0.6-2.3-1.7c-0.2-0.4-0.6-0.4-0.8-0.8c-0.2-0.4-0.4-0.8-0.4-1
					c0-0.4,0.2-0.8,0.4-1.2c0.2-0.6-0.2-1.2-0.8-1.7c-0.2-0.2-0.6-0.2-0.6-0.4c-0.4-1.2-1.4-1.7-2.3-2.7c-0.6-0.6-1-1.4-1.4-2.3
					c-0.4-0.4-0.6-0.8-1.2-1.2c-1.4-0.6-2.9-1.2-4.3-2.1c0,1.7-0.4,1.2-0.6,0.8c0-0.6-0.4-0.8-1-0.8c0,0-0.2,0-0.2-0.2
					c-0.2-1.2-1.2-0.8-1.9-1c-0.4-0.2-0.8-0.4-1.2-0.2c-0.8,0.2-1.4-0.4-2.3-0.6c-0.2,0-0.4,0-0.6,0.2c-0.4,0.4-0.8,0.4-1.4,0
					c-0.8-0.6-1.7-0.6-2.7-0.2c-0.4,0.2-0.8,0.2-1.2,0c-0.8-0.4-1.7-1-2.7-1.4c-0.2,0-0.4-0.2-0.6-0.2c-1.2,0.2-2.3-0.2-3.5,0.2
					c-0.6,0.2-1.4,0.2-1.9,1c-0.2,0.2-0.8,0.2-1.2,0.4c-1,0.2-2.1,0.4-3.1,0c-0.8-0.4-1.9-0.2-2.7-0.4c-0.6-0.2-1-0.6-1.4-0.8
					c-0.2-0.2-0.4-0.4-0.6-0.4c-1.2-0.4-2.3-1.2-2.9-2.3c-0.4-0.6-1-1.2-1.4-1.9c-1.4-0.4-1.2-2.1-2.1-2.9c-0.6-0.8-1.2-1.2-2.3-1.4
					H260c-1-0.8-2.1-0.2-3.3-0.2c-0.4,0-1-0.4-1.4-0.6c-0.2-0.4-0.4-0.6-0.6-0.6c-1.2-0.2-2.3-1-3.3-2.1c-0.4,0.2-0.8,0.4-1.2,0.4
					c-0.4,0.2-1,0.2-1.7,0.2c-0.8-0.2-1.7,0-2.5,0.6c-0.4,0.2-0.6,0.4-1,0.6c-0.4,0.2-0.6,0.6-1,0.8c-0.2,0.2-0.6,0.2-0.8,0.4
					l-1.2,0.6c0,0-0.2,0.2-0.2,0c-0.8-0.4-1.4,0.4-2.1,0.8c-0.6,0.4-1.4,0.4-2.1,0.8h-0.2c-1,0.2-2.1,0.6-3.1,0.8
					c-0.4,0-0.6,0.2-1,0.4c-0.6,0.2-1.2,0.6-1.9,0.8c-0.4,0.2-1,0.4-1.4,0.6h-0.6c0,0-0.4,0-0.6,0.4c-0.8-0.4-1.9-0.6-2.7-1
					c-0.6-0.2-2.1,0.2-2.5,0.8c-0.2,0.2-0.4,0.4-0.6,0.4c-0.2,0-0.6-0.2-0.8-0.2c-0.2,0-0.4,0.2-0.8,0.2c0,0.2,0.2,0.4,0.2,0.6
					c-0.6,0.2-1.7,1.9-1.7,2.7c-1,0.4-2.3,0.6-2.7,1.9c0,0.2-0.2,0.2-0.2,0.4c-1.2,0.2-1.4,1.4-2.1,2.5v0.4c-0.2,0-0.4,0.2-0.6,0.2
					c-0.8,0.4-1.2,1-1.4,2.1c-0.2,1-0.2,1.9-0.4,2.9c-0.4-0.2-1,0.2-1.2-0.4h-0.4c-0.6,0.8-1.2,1.7-1.9,2.3c-0.6,0.4-1.2,0.6-2.1,1
					v0.4c-0.8-0.2-1.4-0.4-2.1-0.8c-0.2,0-0.4-0.2-0.4-0.2c-0.2,0-0.2-0.2-0.2-0.2c-0.2,0-0.2,0.2-0.2,0.4c0,0.8-0.4,0.6-0.8,0.4
					c-0.4-0.2-0.8-0.2-1,0.4c0,0.2-0.2,0.4-0.4,0.4c-0.6,0.2-1.2,0.4-1.4,1c-0.2,0.4-0.4,0.6-0.8,1h-3.1c-0.4,0-0.8,0-1.2,0.2
					c-0.4,0-0.8,0.2-1.4,0.4c-0.4,0.2-1,0.6-1.4,0.8c-0.2,0.2-0.4,0.2-0.6,0.2c-1,0-1.7,0.6-2.3,1.2c-0.6,0.4-1,1-1.7,1.4
					c-0.4,0.2-0.8,0.4-1,0.6c-0.4,0.2-0.6,0.6-1,0.6c-0.4,0.2-1,0.2-1.4,0c-0.6-0.4-1.2,0-1.7,0.2c-0.6,0.2-1,0.6-1.4,0.8
					c0.2,0.2,0.2,0.4,0.4,0.6h-0.6c0,0.2-0.2,0.4-0.2,0.6c-0.2,0-0.4-0.2-0.4-0.2c-0.6,0.4-1.2,0.8-1.9,1c-0.2,0-0.4,0.2-0.4,0.2
					c-0.8-0.2-1.9,0-2.5-0.6c-0.4-0.4-1-0.6-1.4-1c-0.6-0.4-1.4-0.2-2.1,0.8l-2.9-2.9c-0.2,0.2-0.6,0.4-0.8,0.6
					c-0.2,0-0.2,0.2-0.4,0.2c-0.8,0.2-1.7,0.4-2.7,0.6c-0.6,0.2-1,0.4-1,1.2c-0.8,0.4-1.7,0.2-2.3,1H161c-1.2-0.6-2.3-0.4-3.1,0.6
					c-0.2,0.2-0.4,0.2-0.8,0.2c-1-0.2-1.9,0.4-2.7,1c-0.4,0.4-0.8,0.6-1.4,0.6c-1,0.2-1.9,0.2-2.9,0.2c0,0-0.2,0-0.2,0.2
					c-0.8,1-1.9,1-3.1,1c-1.2,0-2.5,0.2-3.5,1.2c-0.6,0.6-1.4,1-2.3,1.7c-0.2,0-0.4,0.2-0.4,0.2c-0.6,0-1.4-0.2-2.1-0.2
					C138.3-418.3,138.7-415.6,138.9-412.9z"/>
			</defs>
			<clipPath id="SVGID_00000078734309485930382140000002954029260265415317_">
				<use xlink:href="#SVGID_00000106839337874493396900000001027567235001585026_"  style="overflow:visible;"/>
			</clipPath>
			<g style="clip-path:url(#SVGID_00000078734309485930382140000002954029260265415317_);">
				<g transform="matrix(0.393654, 0, 0, 0.394019, -29.991975, -131.667331)">
					
						<image style="overflow:visible;enable-background:new    ;" width="1358" height="1050" xlink:href="509040A9.png"  transform="matrix(1.3333 0 0 1.3333 -25.3962 -844.8555)">
					</image>
				</g>
			</g>
		</g>
	</g>
</g>
<g>
	<defs>
		<rect id="SVGID_00000175310892748928661840000000574445628971534516_" x="466.8" y="-289" width="357.2" height="384"/>
	</defs>
	<clipPath id="SVGID_00000018236470502406773510000002836559684659340973_">
		<use xlink:href="#SVGID_00000175310892748928661840000000574445628971534516_"  style="overflow:visible;"/>
	</clipPath>
	<g style="clip-path:url(#SVGID_00000018236470502406773510000002836559684659340973_);">
		<g>
			<defs>
				<path id="SVGID_00000014612584913557046110000010863929684377537965_" d="M467.6-404.8c1.7,17.6,2.1,35.1,2.3,52.9
					c1,64,0.6,128.1,0,192.1c-0.6,64.3-1.4,128.5-1.4,193c0,0.6,0,1.2-0.2,1.9c0.6,0.2,1.2,0.6,1.9,1c0.8,0.6,1.4,1.7,2.3,2.7
					c1.9,2.3,3.7,4.5,5.4,6.8c1.9,2.7,3.7,5.2,5.6,7.9c0.8,1.2,1.7,2.5,2.5,3.5c0.6,0.8,1.7,1.2,2.3,1.9c2.1,1.7,4.3,3.3,6.4,5
					c2.1,1.7,4.1,3.1,6.6,4.1c5.6,2.5,10.9,5.2,16.5,7.6c3.1,1.4,6.2,2.7,9.5,4.1c0.2,0.2,0.8,0,1,0h1.2l0.2,0.2
					c0.4-1,0.8-1.9,1.4-2.9c0.6-0.8,1-2.3,2.5-2.3c0,0,0.2,0,0.2-0.2c0.6-1,1.7-1.2,2.9-1.4c1.2-0.2,2.3-0.8,3.3-1.2
					c0.2,0,0.2-0.2,0.4-0.2c1.4,0.4,2.5-0.6,3.7-1h0.2c1.2,0,2.3-0.6,3.5-0.8c1-0.2,2.1-0.2,3.1-0.8s2.3-1,3.3-1.4
					c1-0.4,2.1-0.6,3.1-1h1c1,0,1.9,0,2.7-0.6h0.4c1,0,2.3,0.2,3.3,0.2h0.8c1-0.2,1.4,0.6,2.1,1c1,1.2,2.3,1.4,3.9,1.2
					c1.4-0.2,2.7-0.4,4.1-0.4c0.6,0,1.4,0.2,2.1,0.4c0.6,0.2,1,0.4,1.7,0.6l0.6,0.6c0,0,0.2,0.6,0.4,0.8c0.4,0.2,0.8,0.2,1,0.4
					l0.2,0.2c1-0.6,1.4,0.4,2.1,0.6c0.8,0.4,1.4,0.8,2.3,1.4c0-0.2,0-0.4,0.2-0.6c1.2,0.2,2.7,0.2,3.9,1c0.2-0.4,0.6-0.8,1-1.2
					c0,0,0-0.2,0.2-0.2c1-0.2,1.7-0.8,1.9-1.9c0.2-0.4,0.2-0.8,0.2-1c0.8-0.4,1.4-0.8,2.3-1.2v-0.4c-0.6-1-0.6-1.2,0.4-1.7
					c0.2-0.2,0.2-0.4,0.4-0.4c0.4-0.2,0.8-0.4,1-0.6c0,0,0,0.2,0.2,0.2v-0.4c1.2-0.4,2.5-0.8,3.7-1.4c0.6-0.4,1.2-0.6,2.1-0.2
					c0.4,0.2,0.8,0,1.2-0.2c1-0.4,2.1-0.6,3.1-1c0.8-0.2,1.4-0.6,2.3-1c0,0,0.2-0.4,0-0.6c0-0.2-0.2-0.6-0.2-0.8
					c0.6-0.4,1-0.8,1.4-0.8c0.6-0.2,1.4-0.2,2.3-0.4c0.6-1.9,1.9-2.3,3.3-1.7l0.4-0.4c0.2,0.2,0.2,0.2,0.2,0.4
					c0.6-0.4,1.2-0.8,1.9-1c0.6-0.4,1.2-0.8,2.1-0.4c0-1,0.6-1,1.2-0.8c0.4,0,1-0.2,1.4-0.4c0.2,0,0.6-0.2,0.8,0
					c0.8,0.6,2.1,0.8,2.9,1.9c0.6,0.8,1.7,1.2,2.1,2.5c0.2,0.4,1,0.8,1.4,1c0,0,0.2,0,0.4,0.2c0.2,0.6,0.8,0.4,1.2,0.2
					c0.4,0,0.8-0.2,1,0.4c0,0.2,0.6,0.4,0.8,0.6c0.6,0.4,1.2,0.8,1.7,1.2c0.2,0.2,0.4,0.4,0.4,0.6c0,0.6,0.6,1,1.2,1
					c0.8,0.2,1.4,0.2,2.3,0.4c0.2,0,0.2,0.4,0.4,0.4c0.2,0.4,0.4,1,1.2,0.6c0.4-0.2,1.7,0.2,1.9,0.6c0.4,1.4,1.9,1.4,2.9,1.9
					c0.2,0,0.4,0,0.4,0.2c0.6,0.8,1.4,1,2.3,1.4c0.8,0.4,1.7,1.2,2.5,2.1l1,1c0.2,0.2,0.4,0.2,0.6,0.2c0.6,0,1.2-0.2,1.7,0.4
					c0,0,0.2,0.2,0.4,0.2c1.7-0.2,2.7,0.8,3.7,1.9c0.4,0.4,1.2,0.6,1.7,0.6c1.2,0.4,2.7,0.6,3.7,1.4c0.6,0.4,1.4,1,2.1,1
					c1,0,1.4,0.8,1.9,1.4c1.2,0.2,2.5,0.2,3.1,1.4c0,0.2,0.2,0.2,0.4,0.2c0.8,0.2,1.7,0.4,2.5,0.8c0.4,0.2,0.8,0.6,1.4,1
					c0.2,0,0.2,0.2,0.4,0.2c1.4,0,1.9,1,2.7,1.9c1.2,1,2.7,2.1,3.7,3.3c0.6,0.8,1.7,1.2,2.3,1.7l1.2,0.6c0.4,0.4,0.8,0.8,1.4,1.2
					c0.6,0.2,0.8,1,1.7,0.8c0.4,0,0.8,0.2,1.2,0.4c0.6,0.4,0.8,0.8,1.7,0.8c0.4,0,0.8,0.4,1,0.6c1,0.4,2.1,0.4,2.7-0.8l0.2-0.2
					c0.8,0.4,0.8-0.4,1-0.8c0.2-0.2,0.6-0.4,0.8-0.6c0.4-0.4,0.8-0.6,1.4-1c0.2-0.2,0.6-0.4,0.8-0.4c1,0,1.7-0.4,2.5-1.2
					c0.6-0.6,1.7-1,2.5-1.4c0.8-0.4,1.7-0.8,2.7-1c0.6-0.2,1.2-0.2,1.9-0.2h0.4c0.8-0.4,1.7-1,2.7-1.4h0.6c1,0.4,2.1,0.4,3.1-0.4
					c0.2-0.2,0.6-0.4,0.8-0.6c1,0.4,2.1,1.2,3.3,1.2c0.4,0,1-0.2,1.4-0.4c0.8,0,1.7,0,2.3-0.2c0.8-0.2,1.9,0,2.7-0.4
					c0.4-1,0.6-1,1.7-0.8c1.2,0.2,2.1,0,2.9-1c0.4-0.6,1.4-0.6,2.1-1c0.2,0,0.4-0.2,0.6-0.2c0.4-0.2,0.6-0.2,1-0.4
					c1-0.4,2.1-0.6,3.1-1.2c1-0.6,1.9-1,2.9-0.2h0.4c0.4-0.2,0.6-0.2,1-0.4c0-0.6,0-1.4,0.8-2.1c0.2-0.2,0.2-0.6,0.6-0.8
					c0.4-0.4,1-0.4,1.4-0.2c0.2,0.2,0.6,0,0.8,0c1.2-0.2,2.7-0.2,3.9-0.4c1.2-0.2,2.5-0.4,3.7-0.8c0.8-0.4,1.7-0.2,2.5-0.2
					c1.7,0.2,3.1,0.2,4.5-0.6l-0.4-0.4c0.4-0.2,0.8-0.2,1.4-0.2c0.4,0.6,1,0.2,1.4-0.2c0.6-0.6,1.2-0.4,2.1-0.4
					c0.8,0.2,1.9-0.2,2.9-0.4c0.2,0,0.4-0.4,0.4-0.6c0.4,0,0.8-0.2,1.4-0.2h0.8c0.8,0.4,1.7,0.4,2.5,0c0.2-0.2,0.6-0.2,0.8-0.2
					c0.6-0.2,1.2,0,1.7-0.6c0.2-0.2,0.6,0,1-0.2h6c0.8,0,1.9,0.2,2.7,0.4c1,0.2,1.9,0,2.7-0.2h1.4c0.6,0,1.2,0.2,1.9,0
					c0.4,0,0.6-0.4,0.8-0.8c0.4-0.6,1-0.8,1.9-0.8c0.6,0,1.2-0.2,1.9-0.4h0.4c0.8,1.2,2.1,0.4,3.1,0.6h0.4c0.8,0.4,1.9,0.8,2.7,1
					c1,0.2,1.9,1.2,2.7,1.2c1.4,0,2.7,1,3.9,1.2c1,0.2,2.1,0.6,3.1,1c0.4,0.2,1,0,1.4,0c1.2,0.2,2.5,0.2,3.7,0.4h0.2
					c1.4-0.2,2.9,0.2,4.3,0.2c0.2-36.8-0.8-73.5-2.1-110.3c-1.2-34.9-2.5-69.8-2.7-104.8c0-17.6,0.2-34.9,0.6-52.5
					c0.6-17.6,1.9-35.1,2.7-52.7c2.5-55.6,1-111.4,0.2-166.9c-0.6-0.2-1-0.4-1.4-0.6c-0.6-0.4-1.2-0.6-2.1-0.4H817
					c-0.6,0-1.4,0-1.9,0.8c0,0-0.2,0.2-0.4,0.2h-0.8c-0.2-0.4,0.2-1.2-0.8-1c-0.4,0-1,0.2-1.4,0.2h-3.1c-0.2-0.4-0.4-0.8-0.8-1.4
					c-0.2-0.4-0.4-0.6-1-0.2c-0.4,0.2-0.6,0.2-0.8-0.2c-0.6-1-1.2-1.9-2.5-2.1c-0.2,0-0.4-0.4-0.6-0.6c-0.4-0.4-0.6-0.8-1.2-0.8
					c-0.2,0-0.6-0.4-0.6-0.6c-0.2-0.8-0.2-1.4-0.2-2.3c-0.2-0.8-0.6-1.7-1.2-2.1c-1-0.6-1.9-1.4-2.9-2.1c-0.2-0.2-0.6-0.4-1-0.4
					c-0.6-0.2-1.2-0.4-1.9-0.4s-1.4,0-2.1,0.4c-1.2,0.6-2.3-0.2-3.3-0.2c-1-0.2-2.1-0.6-2.9-0.8h-2.7c-2.3,0.4-4.1-0.8-6.4-1
					c-0.6,0-1.2-0.6-1.9-1c-0.4-0.4-0.8-0.4-1.4-0.2c-0.8,0.2-1.7,0-2.5,0.2c-1.2,0.4-2.3-0.6-3.5-0.6c-1,0.2-2.1,0.2-3.1,0.4
					l-2.5,0.6c-1.7,0.8-2.9-0.2-4.3-0.6c-1-0.2-1.7-0.6-2.5-1.2c-0.8-0.6-1.7,0-2.3,0c-0.6,0-1,0.6-1.4,0.8
					c-0.6,0.2-1.2,0.2-1.9,0.2s-1.4-0.2-2.1,0c-1,0.4-1.9,1-2.7,1.4c-0.2,0.2-0.4,0.4-0.6,0.4c-1.4,0.8-3.1,1-5,1
					c-1,0-2.1,0-3.1-0.2c-0.6,0-1-0.6-1.4-0.6c-1.4-0.2-2.7-0.2-4.1-0.2c-0.2,0-0.4,0.2-0.6,0.2c-0.8,0.4-1.7,1-2.5,1.4
					c-1.4,0.4-2.9,0.8-4.3,1h-0.6c-1.2-0.6-2.3,0-3.5,0.2c-1.2,0.4-2.5,1-3.7,1.4c-0.4,0.2-0.8,0-1.2-0.2c-0.6-0.2-1-0.2-1.4,0.2
					c-0.2,0.2-0.4,0.2-0.6,0.2c-0.6,0.2-1.2,0.2-1.7,0.4c-0.8,0.6-1.7,0.4-2.5,0.8c-0.8,0.4-1.7,0.4-2.3,1c-0.2,0.2-0.6,0.2-1,0.2
					c-1,0.2-1.9,0.8-2.5,1.7c-0.8,0.8-1.7,1.4-2.5,2.1c-0.2,0.2-0.8,0.2-1,0.2c-0.8,0-1.7-0.2-2.3-0.4c-0.4,0-0.6-0.2-1-0.2
					c-1.2,0.6-2.7,0.2-3.9,0.2c-0.2,0-0.6-0.2-0.8-0.4c-0.8-0.6-1.7-0.6-2.5-0.2c-0.6,0.2-1.2,0.2-1.7-0.2c-0.8-0.6-1.9-1-2.9-1.2
					c-0.8-0.2-1.7-0.6-2.5-1c-0.4-0.2-0.8,0-1.2,0c-0.4,0-0.6,0.2-1,0.2c-1.2,0.2-2.5,0.6-3.5,0.4c-1.4-0.4-2.9-0.2-4.1-1
					c-0.6-0.4-0.8,0-1.2,0c-0.2,0-0.4,0-0.8,0.2c-0.2,0.6-1,1-2.1,0.6c-0.6-0.2-1-0.2-1.7,0c-0.6,0.2-1.2,0.2-2.1,0.4h-0.2
					c-1.7,1-3.3,0.2-5.2,0.2h-1c-1.2,0.2-1.9-0.8-2.7-1.4c-0.8-0.6-1.7-1.4-2.5-1.9c-0.2-0.2-0.8,0-1.2,0H648l-0.2-0.2
					c-1.4,0.4-2.3-0.4-3.3-1.2c-0.6-0.4-1.4-0.8-2.1-1c-0.8-0.4-1.9-0.6-2.3-1.7c-0.2-0.4-0.6-0.4-0.8-0.8c-0.2-0.4-0.4-0.8-0.4-1
					c0-0.4,0.2-0.8,0.4-1.2c0.2-0.6-0.2-1.2-0.8-1.7c-0.2-0.2-0.6-0.2-0.6-0.4c-0.4-1.2-1.4-1.7-2.3-2.7c-0.6-0.6-1-1.4-1.4-2.3
					c-0.4-0.4-0.6-0.8-1.2-1.2c-1.4-0.6-2.9-1.2-4.3-2.1c0,1.7-0.4,1.2-0.6,0.8c0-0.6-0.4-0.8-1-0.8c0,0-0.2,0-0.2-0.2
					c-0.2-1.2-1.2-0.8-1.9-1c-0.4-0.2-0.8-0.4-1.2-0.2c-0.8,0.2-1.4-0.4-2.3-0.6c-0.2,0-0.4,0-0.6,0.2c-0.4,0.4-0.8,0.4-1.4,0
					c-0.8-0.6-1.7-0.6-2.7-0.2c-0.4,0.2-0.8,0.2-1.2,0c-0.8-0.4-1.7-1-2.7-1.4c-0.2,0-0.4-0.2-0.6-0.2c-1.2,0.2-2.3-0.2-3.5,0.2
					c-0.6,0.2-1.4,0.2-1.9,1c-0.2,0.2-0.8,0.2-1.2,0.4c-1,0.2-2.1,0.4-3.1,0c-0.8-0.4-1.9-0.2-2.7-0.4c-0.6-0.2-1-0.6-1.4-0.8
					c-0.2-0.2-0.4-0.4-0.6-0.4c-1.2-0.4-2.3-1.2-2.9-2.3c-0.4-0.6-1-1.2-1.4-1.9c-1.4-0.4-1.2-2.1-2.1-2.9c-0.6-0.8-1.2-1.2-2.3-1.4
					h-0.2c-1-0.8-2.1-0.2-3.3-0.2c-0.4,0-1-0.4-1.4-0.6c-0.2-0.4-0.4-0.6-0.6-0.6c-1.2-0.2-2.3-1-3.3-2.1c-0.4,0.2-0.8,0.4-1.2,0.4
					c-0.4,0.2-1,0.2-1.7,0.2c-0.8-0.2-1.7,0-2.5,0.6c-0.4,0.2-0.6,0.4-1,0.6c-0.4,0.2-0.6,0.6-1,0.8c-0.2,0.2-0.6,0.2-0.8,0.4
					l-1.2,0.6c0,0-0.2,0.2-0.2,0c-0.8-0.4-1.4,0.4-2.1,0.8c-0.6,0.4-1.4,0.4-2.1,0.8h-0.2c-1,0.2-2.1,0.6-3.1,0.8
					c-0.4,0-0.6,0.2-1,0.4c-0.6,0.2-1.2,0.6-1.9,0.8c-0.4,0.2-1,0.4-1.4,0.6h-0.6c0,0-0.4,0-0.6,0.4c-0.8-0.4-1.9-0.6-2.7-1
					c-0.6-0.2-2.1,0.2-2.5,0.8c-0.2,0.2-0.4,0.4-0.6,0.4c-0.2,0-0.6-0.2-0.8-0.2c-0.2,0-0.4,0.2-0.8,0.2c0,0.2,0.2,0.4,0.2,0.6
					c-0.6,0.2-1.7,1.9-1.7,2.7c-1,0.4-2.3,0.6-2.7,1.9c0,0.2-0.2,0.2-0.2,0.4c-1.2,0.2-1.4,1.4-2.1,2.5v0.4c-0.2,0-0.4,0.2-0.6,0.2
					c-0.8,0.4-1.2,1-1.4,2.1c-0.2,1-0.2,1.9-0.4,2.9c-0.4-0.2-1,0.2-1.2-0.4h-0.4c-0.6,0.8-1.2,1.7-1.9,2.3c-0.6,0.4-1.2,0.6-2.1,1
					v0.4c-0.8-0.2-1.4-0.4-2.1-0.8c-0.2,0-0.4-0.2-0.4-0.2c-0.2,0-0.2-0.2-0.2-0.2c-0.2,0-0.2,0.2-0.2,0.4c0,0.8-0.4,0.6-0.8,0.4
					c-0.4-0.2-0.8-0.2-1,0.4c0,0.2-0.2,0.4-0.4,0.4c-0.6,0.2-1.2,0.4-1.4,1c-0.2,0.4-0.4,0.6-0.8,1h-3.1c-0.4,0-0.8,0-1.2,0.2
					c-0.4,0-0.8,0.2-1.4,0.4c-0.4,0.2-1,0.6-1.4,0.8c-0.2,0.2-0.4,0.2-0.6,0.2c-1,0-1.7,0.6-2.3,1.2c-0.6,0.4-1,1-1.7,1.4
					c-0.4,0.2-0.8,0.4-1,0.6c-0.4,0.2-0.6,0.6-1,0.6c-0.4,0.2-1,0.2-1.4,0c-0.6-0.4-1.2,0-1.7,0.2c-0.6,0.2-1,0.6-1.4,0.8
					c0.2,0.2,0.2,0.4,0.4,0.6h-0.6c0,0.2-0.2,0.4-0.2,0.6c-0.2,0-0.4-0.2-0.4-0.2c-0.6,0.4-1.2,0.8-1.9,1c-0.2,0-0.4,0.2-0.4,0.2
					c-0.8-0.2-1.9,0-2.5-0.6c-0.4-0.4-1-0.6-1.4-1c-0.6-0.4-1.4-0.2-2.1,0.8l-2.9-2.9c-0.2,0.2-0.6,0.4-0.8,0.6
					c-0.2,0-0.2,0.2-0.4,0.2c-0.8,0.2-1.7,0.4-2.7,0.6c-0.6,0.2-1,0.4-1,1.2c-0.8,0.4-1.7,0.2-2.3,1h-0.6c-1.2-0.6-2.3-0.4-3.1,0.6
					c-0.2,0.2-0.4,0.2-0.8,0.2c-1-0.2-1.9,0.4-2.7,1c-0.4,0.4-0.8,0.6-1.4,0.6c-1,0.2-1.9,0.2-2.9,0.2c0,0-0.2,0-0.2,0.2
					c-0.8,1-1.9,1-3.1,1c-1.2,0-2.5,0.2-3.5,1.2c-0.6,0.6-1.4,1-2.3,1.7c-0.2,0-0.4,0.2-0.4,0.2c-0.6,0-1.4-0.2-2.1-0.2
					C467-410.1,467.4-407.4,467.6-404.8z"/>
			</defs>
			<clipPath id="SVGID_00000026860940637805189730000007096588871639033770_">
				<use xlink:href="#SVGID_00000014612584913557046110000010863929684377537965_"  style="overflow:visible;"/>
			</clipPath>
			<g style="clip-path:url(#SVGID_00000026860940637805189730000007096588871639033770_);">
				<g transform="matrix(0.393654, 0, 0, 0.394019, 216.537005, -125.549969)">
					
						<image style="overflow:visible;enable-background:new    ;" width="1358" height="1050" xlink:href="509040AB.png"  transform="matrix(1.3333 0 0 1.3333 183.3565 -839.6803)">
					</image>
				</g>
			</g>
		</g>
	</g>
</g>
<g>
	<defs>
		<rect id="SVGID_00000051355827193427973580000004990675486522228645_" x="695.5" y="-289" width="384.5" height="398"/>
	</defs>
	<clipPath id="SVGID_00000118388024423026419800000015752278584649114015_">
		<use xlink:href="#SVGID_00000051355827193427973580000004990675486522228645_"  style="overflow:visible;"/>
	</clipPath>
	<g style="clip-path:url(#SVGID_00000118388024423026419800000015752278584649114015_);">
		<g>
			<defs>
				<path id="SVGID_00000040555896896128029210000003551801428584342956_" d="M696.4-430.7c1.8,19,2.2,37.9,2.5,57.1
					c1.1,69.1,0.7,138.3,0,207.4c-0.7,69.4-1.6,138.7-1.6,208.3c0,0.7,0,1.3-0.2,2c0.7,0.2,1.3,0.7,2,1.1c0.9,0.7,1.6,1.8,2.5,2.9
					c2,2.5,4,4.9,5.8,7.4c2,2.9,4,5.6,6,8.5c0.9,1.3,1.8,2.7,2.7,3.8c0.7,0.9,1.8,1.3,2.5,2c2.2,1.8,4.7,3.6,6.9,5.4
					c2.2,1.8,4.5,3.3,7.1,4.5c6,2.7,11.8,5.6,17.8,8.2c3.3,1.6,6.7,2.9,10.3,4.5c0.2,0.2,0.9,0,1.1,0h1.3l0.2,0.2
					c0.4-1.1,0.9-2,1.6-3.1c0.7-0.9,1.1-2.5,2.7-2.5c0,0,0.2,0,0.2-0.2c0.7-1.1,1.8-1.3,3.1-1.6s2.5-0.9,3.6-1.3
					c0.2,0,0.2-0.2,0.4-0.2c1.6,0.4,2.7-0.7,4-1.1h0.2c1.3,0,2.5-0.7,3.8-0.9c1.1-0.2,2.2-0.2,3.3-0.9c1.1-0.7,2.5-1.1,3.6-1.6
					c1.1-0.4,2.2-0.7,3.3-1.1h1.1c1.1,0,2,0,2.9-0.7h0.4c1.1,0,2.5,0.2,3.6,0.2h0.9c1.1-0.2,1.6,0.7,2.2,1.1
					c1.1,1.3,2.5,1.6,4.2,1.3c1.6-0.2,2.9-0.4,4.5-0.4c0.7,0,1.6,0.2,2.2,0.4c0.7,0.2,1.1,0.4,1.8,0.7l0.7,0.7c0,0,0.2,0.7,0.4,0.9
					c0.4,0.2,0.9,0.2,1.1,0.4l0.2,0.2c1.1-0.7,1.6,0.4,2.2,0.7c0.9,0.4,1.6,0.9,2.5,1.6c0-0.2,0-0.4,0.2-0.7
					c1.3,0.2,2.9,0.2,4.2,1.1c0.2-0.4,0.7-0.9,1.1-1.3c0,0,0-0.2,0.2-0.2c1.1-0.2,1.8-0.9,2-2c0.2-0.4,0.2-0.9,0.2-1.1
					c0.9-0.4,1.6-0.9,2.5-1.3v-0.4c-0.7-1.1-0.7-1.3,0.4-1.8c0.2-0.2,0.2-0.4,0.4-0.4c0.4-0.2,0.9-0.4,1.1-0.7c0,0,0,0.2,0.2,0.2V76
					c1.3-0.4,2.7-0.9,4-1.6c0.7-0.4,1.3-0.7,2.2-0.2c0.4,0.2,0.9,0,1.3-0.2c1.1-0.4,2.2-0.7,3.3-1.1c0.9-0.2,1.6-0.7,2.5-1.1
					c0,0,0.2-0.4,0-0.7c0-0.2-0.2-0.7-0.2-0.9c0.7-0.4,1.1-0.9,1.6-0.9c0.7-0.2,1.6-0.2,2.5-0.4c0.7-2,2-2.5,3.6-1.8l0.4-0.4
					c0.2,0.2,0.2,0.2,0.2,0.4c0.7-0.4,1.3-0.9,2-1.1c0.7-0.4,1.3-0.9,2.2-0.4c0-1.1,0.7-1.1,1.3-0.9c0.4,0,1.1-0.2,1.6-0.4
					c0.2,0,0.7-0.2,0.9,0c0.9,0.7,2.2,0.9,3.1,2c0.7,0.9,1.8,1.3,2.2,2.7c0.2,0.4,1.1,0.9,1.6,1.1c0,0,0.2,0,0.4,0.2
					c0.2,0.7,0.9,0.4,1.3,0.2c0.4,0,0.9-0.2,1.1,0.4c0,0.2,0.7,0.4,0.9,0.7c0.7,0.4,1.3,0.9,1.8,1.3c0.2,0.2,0.4,0.4,0.4,0.7
					c0,0.7,0.7,1.1,1.3,1.1c0.9,0.2,1.6,0.2,2.5,0.4c0.2,0,0.2,0.4,0.4,0.4c0.2,0.4,0.4,1.1,1.3,0.7c0.4-0.2,1.8,0.2,2,0.7
					c0.4,1.6,2,1.6,3.1,2c0.2,0,0.4,0,0.4,0.2c0.7,0.9,1.6,1.1,2.5,1.6c0.9,0.4,1.8,1.3,2.7,2.2l1.1,1.1c0.2,0.2,0.4,0.2,0.7,0.2
					c0.7,0,1.3-0.2,1.8,0.4c0,0,0.2,0.2,0.4,0.2c1.8-0.2,2.9,0.9,4,2c0.4,0.4,1.3,0.7,1.8,0.7c1.3,0.4,2.9,0.7,4,1.6
					c0.7,0.4,1.6,1.1,2.2,1.1c1.1,0,1.6,0.9,2,1.6c1.3,0.2,2.7,0.2,3.3,1.6c0,0.2,0.2,0.2,0.4,0.2c0.9,0.2,1.8,0.4,2.7,0.9
					c0.4,0.2,0.9,0.7,1.6,1.1c0.2,0,0.2,0.2,0.4,0.2c1.6,0,2,1.1,2.9,2c1.3,1.1,2.9,2.2,4,3.6c0.7,0.9,1.8,1.3,2.5,1.8l1.3,0.7
					c0.4,0.4,0.9,0.9,1.6,1.3c0.7,0.2,0.9,1.1,1.8,0.9c0.4,0,0.9,0.2,1.3,0.4c0.7,0.4,0.9,0.9,1.8,0.9c0.4,0,0.9,0.4,1.1,0.7
					c1.1,0.4,2.2,0.4,2.9-0.9l0.2-0.2c0.9,0.4,0.9-0.4,1.1-0.9c0.2-0.2,0.7-0.4,0.9-0.7c0.4-0.4,0.9-0.7,1.6-1.1
					c0.2-0.2,0.7-0.4,0.9-0.4c1.1,0,1.8-0.4,2.7-1.3c0.7-0.7,1.8-1.1,2.7-1.6c0.9-0.4,1.8-0.9,2.9-1.1c0.7-0.2,1.3-0.2,2-0.2h0.4
					c0.9-0.4,1.8-1.1,2.9-1.6h0.7c1.1,0.4,2.2,0.4,3.3-0.4c0.2-0.2,0.7-0.4,0.9-0.7c1.1,0.4,2.2,1.3,3.6,1.3c0.4,0,1.1-0.2,1.6-0.4
					c0.9,0,1.8,0,2.5-0.2c0.9-0.2,2,0,2.9-0.4c0.4-1.1,0.7-1.1,1.8-0.9c1.3,0.2,2.2,0,3.1-1.1c0.4-0.7,1.6-0.7,2.2-1.1
					c0.2,0,0.4-0.2,0.7-0.2c0.4-0.2,0.7-0.2,1.1-0.4c1.1-0.4,2.2-0.7,3.3-1.3c1.1-0.7,2-1.1,3.1-0.2h0.4c0.4-0.2,0.7-0.2,1.1-0.4
					c0-0.7,0-1.6,0.9-2.2c0.2-0.2,0.2-0.7,0.7-0.9c0.4-0.4,1.1-0.4,1.6-0.2c0.2,0.2,0.7,0,0.9,0c1.3-0.2,2.9-0.2,4.2-0.4
					c1.3-0.2,2.7-0.4,4-0.9c0.9-0.4,1.8-0.2,2.7-0.2c1.8,0.2,3.3,0.2,4.9-0.7l-0.4-0.4c0.4-0.2,0.9-0.2,1.6-0.2
					c0.4,0.7,1.1,0.2,1.6-0.2c0.7-0.7,1.3-0.4,2.2-0.4c0.9,0.2,2-0.2,3.1-0.4c0.2,0,0.4-0.4,0.4-0.7c0.4,0,0.9-0.2,1.6-0.2h0.9
					c0.9,0.4,1.8,0.4,2.7,0c0.2-0.2,0.7-0.2,0.9-0.2c0.7-0.2,1.3,0,1.8-0.7c0.2-0.2,0.7,0,1.1-0.2h6.5c0.9,0,2,0.2,2.9,0.4
					c1.1,0.2,2,0,2.9-0.2h1.6c0.7,0,1.3,0.2,2,0c0.4,0,0.7-0.4,0.9-0.9c0.4-0.7,1.1-0.9,2-0.9c0.7,0,1.3-0.2,2-0.4h0.4
					c0.9,1.3,2.2,0.4,3.3,0.7h0.4c0.9,0.4,2,0.9,2.9,1.1c1.1,0.2,2,1.3,2.9,1.3c1.6,0,2.9,1.1,4.2,1.3c1.1,0.2,2.2,0.7,3.3,1.1
					c0.4,0.2,1.1,0,1.6,0c1.3,0.2,2.7,0.2,4,0.4h0.2c1.6-0.2,3.1,0.2,4.7,0.2c0.2-39.7-0.9-79.4-2.2-119.1
					c-1.3-37.7-2.7-75.4-2.9-113.1c0-19,0.2-37.7,0.7-56.7c0.7-19,2-37.9,2.9-56.9c2.7-60,1.1-120.2,0.2-180.2
					c-0.7-0.2-1.1-0.4-1.6-0.7c-0.7-0.4-1.3-0.7-2.2-0.4h-1.3c-0.7,0-1.6,0-2,0.9c0,0-0.2,0.2-0.4,0.2h-0.9
					c-0.2-0.4,0.2-1.3-0.9-1.1c-0.4,0-1.1,0.2-1.6,0.2h-3.3c-0.2-0.4-0.4-0.9-0.9-1.6c-0.2-0.4-0.4-0.7-1.1-0.2
					c-0.4,0.2-0.7,0.2-0.9-0.2c-0.7-1.1-1.3-2-2.7-2.2c-0.2,0-0.4-0.4-0.7-0.7c-0.4-0.4-0.7-0.9-1.3-0.9c-0.2,0-0.7-0.4-0.7-0.7
					c-0.2-0.9-0.2-1.6-0.2-2.5c-0.2-0.9-0.7-1.8-1.3-2.2c-1.1-0.7-2-1.6-3.1-2.2c-0.2-0.2-0.7-0.4-1.1-0.4c-0.7-0.2-1.3-0.4-2-0.4
					c-0.7,0-1.6,0-2.2,0.4c-1.3,0.7-2.5-0.2-3.6-0.2c-1.1-0.2-2.2-0.7-3.1-0.9h-2.9c-2.5,0.4-4.5-0.9-6.9-1.1c-0.7,0-1.3-0.7-2-1.1
					c-0.4-0.4-0.9-0.4-1.6-0.2c-0.9,0.2-1.8,0-2.7,0.2c-1.3,0.4-2.5-0.7-3.8-0.7c-1.1,0.2-2.2,0.2-3.3,0.4l-2.7,0.7
					c-1.8,0.9-3.1-0.2-4.7-0.7c-1.1-0.2-1.8-0.7-2.7-1.3c-0.9-0.7-1.8,0-2.5,0c-0.7,0-1.1,0.7-1.6,0.9c-0.7,0.2-1.3,0.2-2,0.2
					c-0.7,0-1.6-0.2-2.2,0c-1.1,0.4-2,1.1-2.9,1.6c-0.2,0.2-0.4,0.4-0.7,0.4c-1.6,0.9-3.3,1.1-5.4,1.1c-1.1,0-2.2,0-3.3-0.2
					c-0.7,0-1.1-0.7-1.6-0.7c-1.6-0.2-2.9-0.2-4.5-0.2c-0.2,0-0.4,0.2-0.7,0.2c-0.9,0.4-1.8,1.1-2.7,1.6c-1.6,0.4-3.1,0.9-4.7,1.1
					H971c-1.3-0.7-2.5,0-3.8,0.2c-1.3,0.4-2.7,1.1-4,1.6c-0.4,0.2-0.9,0-1.3-0.2c-0.7-0.2-1.1-0.2-1.6,0.2c-0.2,0.2-0.4,0.2-0.7,0.2
					c-0.7,0.2-1.3,0.2-1.8,0.4c-0.9,0.7-1.8,0.4-2.7,0.9c-0.9,0.4-1.8,0.4-2.5,1.1c-0.2,0.2-0.7,0.2-1.1,0.2c-1.1,0.2-2,0.9-2.7,1.8
					c-0.9,0.9-1.8,1.6-2.7,2.2c-0.2,0.2-0.9,0.2-1.1,0.2c-0.9,0-1.8-0.2-2.5-0.4c-0.4,0-0.7-0.2-1.1-0.2c-1.3,0.7-2.9,0.2-4.2,0.2
					c-0.2,0-0.7-0.2-0.9-0.4c-0.9-0.7-1.8-0.7-2.7-0.2c-0.7,0.2-1.3,0.2-1.8-0.2c-0.9-0.7-2-1.1-3.1-1.3c-0.9-0.2-1.8-0.7-2.7-1.1
					c-0.4-0.2-0.9,0-1.3,0c-0.4,0-0.7,0.2-1.1,0.2c-1.3,0.2-2.7,0.7-3.8,0.4c-1.6-0.4-3.1-0.2-4.5-1.1c-0.7-0.4-0.9,0-1.3,0
					c-0.2,0-0.4,0-0.9,0.2c-0.2,0.7-1.1,1.1-2.2,0.7c-0.7-0.2-1.1-0.2-1.8,0c-0.7,0.2-1.3,0.2-2.2,0.4h-0.2
					c-1.8,1.1-3.6,0.2-5.6,0.2h-1.1c-1.3,0.2-2-0.9-2.9-1.6s-1.8-1.6-2.7-2c-0.2-0.2-0.9,0-1.3,0h-2l-0.2-0.2
					c-1.6,0.4-2.5-0.4-3.6-1.3c-0.7-0.4-1.6-0.9-2.2-1.1c-0.9-0.4-2-0.7-2.5-1.8c-0.2-0.4-0.7-0.4-0.9-0.9c-0.2-0.4-0.4-0.9-0.4-1.1
					c0-0.4,0.2-0.9,0.4-1.3c0.2-0.7-0.2-1.3-0.9-1.8c-0.2-0.2-0.7-0.2-0.7-0.4c-0.4-1.3-1.6-1.8-2.5-2.9c-0.7-0.7-1.1-1.6-1.6-2.5
					c-0.4-0.4-0.7-0.9-1.3-1.3c-1.6-0.7-3.1-1.3-4.7-2.2c0,1.8-0.4,1.3-0.7,0.9c0-0.7-0.4-0.9-1.1-0.9c0,0-0.2,0-0.2-0.2
					c-0.2-1.3-1.3-0.9-2-1.1c-0.4-0.2-0.9-0.4-1.3-0.2c-0.9,0.2-1.6-0.4-2.5-0.7c-0.2,0-0.4,0-0.7,0.2c-0.4,0.4-0.9,0.4-1.6,0
					c-0.9-0.7-1.8-0.7-2.9-0.2c-0.4,0.2-0.9,0.2-1.3,0c-0.9-0.4-1.8-1.1-2.9-1.6c-0.2,0-0.4-0.2-0.7-0.2c-1.3,0.2-2.5-0.2-3.8,0.2
					c-0.7,0.2-1.6,0.2-2,1.1c-0.2,0.2-0.9,0.2-1.3,0.4c-1.1,0.2-2.2,0.4-3.3,0c-0.9-0.4-2-0.2-2.9-0.4c-0.7-0.2-1.1-0.7-1.6-0.9
					c-0.2-0.2-0.4-0.4-0.7-0.4c-1.3-0.4-2.5-1.3-3.1-2.5c-0.4-0.7-1.1-1.3-1.6-2c-1.6-0.4-1.3-2.2-2.2-3.1c-0.7-0.9-1.3-1.3-2.5-1.6
					h-0.2c-1.1-0.9-2.2-0.2-3.6-0.2c-0.4,0-1.1-0.4-1.6-0.7c-0.2-0.4-0.4-0.7-0.7-0.7c-1.3-0.2-2.5-1.1-3.6-2.2
					c-0.4,0.2-0.9,0.4-1.3,0.4c-0.4,0.2-1.1,0.2-1.8,0.2c-0.9-0.2-1.8,0-2.7,0.7c-0.4,0.2-0.7,0.4-1.1,0.7c-0.4,0.2-0.7,0.7-1.1,0.9
					c-0.2,0.2-0.7,0.2-0.9,0.4l-1.3,0.7c0,0-0.2,0.2-0.2,0c-0.9-0.4-1.6,0.4-2.2,0.9c-0.7,0.4-1.6,0.4-2.2,0.9h-0.2
					c-1.1,0.2-2.2,0.7-3.3,0.9c-0.4,0-0.7,0.2-1.1,0.4c-0.7,0.2-1.3,0.7-2,0.9c-0.4,0.2-1.1,0.4-1.6,0.7h-0.7c0,0-0.4,0-0.7,0.4
					c-0.9-0.4-2-0.7-2.9-1.1c-0.7-0.2-2.2,0.2-2.7,0.9c-0.2,0.2-0.4,0.4-0.7,0.4c-0.2,0-0.7-0.2-0.9-0.2c-0.2,0-0.4,0.2-0.9,0.2
					c0,0.2,0.2,0.4,0.2,0.7c-0.7,0.2-1.8,2-1.8,2.9c-1.1,0.4-2.5,0.7-2.9,2c0,0.2-0.2,0.2-0.2,0.4c-1.3,0.2-1.6,1.6-2.2,2.7v0.4
					c-0.2,0-0.4,0.2-0.7,0.2c-0.9,0.4-1.3,1.1-1.6,2.2c-0.2,1.1-0.2,2-0.4,3.1c-0.4-0.2-1.1,0.2-1.3-0.4h-0.4
					c-0.7,0.9-1.3,1.8-2,2.5c-0.7,0.4-1.3,0.7-2.2,1.1v0.4c-0.9-0.2-1.6-0.4-2.2-0.9c-0.2,0-0.4-0.2-0.4-0.2c-0.2,0-0.2-0.2-0.2-0.2
					c-0.2,0-0.2,0.2-0.2,0.4c0,0.9-0.4,0.7-0.9,0.4c-0.4-0.2-0.9-0.2-1.1,0.4c0,0.2-0.2,0.4-0.4,0.4c-0.7,0.2-1.3,0.4-1.6,1.1
					c-0.2,0.4-0.4,0.7-0.9,1.1h-3.3c-0.4,0-0.9,0-1.3,0.2c-0.4,0-0.9,0.2-1.6,0.4c-0.4,0.2-1.1,0.7-1.6,0.9
					c-0.2,0.2-0.4,0.2-0.7,0.2c-1.1,0-1.8,0.7-2.5,1.3c-0.7,0.4-1.1,1.1-1.8,1.6c-0.4,0.2-0.9,0.4-1.1,0.7c-0.4,0.2-0.7,0.7-1.1,0.7
					c-0.4,0.2-1.1,0.2-1.6,0c-0.7-0.4-1.3,0-1.8,0.2c-0.7,0.2-1.1,0.7-1.6,0.9c0.2,0.2,0.2,0.4,0.4,0.7h-0.7c0,0.2-0.2,0.4-0.2,0.7
					c-0.2,0-0.4-0.2-0.4-0.2c-0.7,0.4-1.3,0.9-2,1.1c-0.2,0-0.4,0.2-0.4,0.2c-0.9-0.2-2,0-2.7-0.7c-0.4-0.4-1.1-0.7-1.6-1.1
					c-0.7-0.4-1.6-0.2-2.2,0.9l-3.1-3.1c-0.2,0.2-0.7,0.4-0.9,0.7c-0.2,0-0.2,0.2-0.4,0.2c-0.9,0.2-1.8,0.4-2.9,0.7
					c-0.7,0.2-1.1,0.4-1.1,1.3c-0.9,0.4-1.8,0.2-2.5,1.1h-0.7c-1.3-0.7-2.5-0.4-3.3,0.7c-0.2,0.2-0.4,0.2-0.9,0.2
					c-1.1-0.2-2,0.4-2.9,1.1c-0.4,0.4-0.9,0.7-1.6,0.7c-1.1,0.2-2,0.2-3.1,0.2c0,0-0.2,0-0.2,0.2c-0.9,1.1-2,1.1-3.3,1.1
					s-2.7,0.2-3.8,1.3c-0.7,0.7-1.6,1.1-2.5,1.8c-0.2,0-0.4,0.2-0.4,0.2c-0.7,0-1.6-0.2-2.2-0.2
					C695.8-436.5,696.2-433.6,696.4-430.7z"/>
			</defs>
			<clipPath id="SVGID_00000135688281817338748000000014844021242477591704_">
				<use xlink:href="#SVGID_00000040555896896128029210000003551801428584342956_"  style="overflow:visible;"/>
			</clipPath>
			<g style="clip-path:url(#SVGID_00000135688281817338748000000014844021242477591704_);">
				<g transform="matrix(0.424967, 0, 0, 0.425361, 377.480025, -148.097233)">
					
						<image style="overflow:visible;enable-background:new    ;" width="1358" height="1050" xlink:href="509040A9.png"  transform="matrix(1.3333 0 0 1.3333 296.0858 -795.479)">
					</image>
				</g>
			</g>
		</g>
	</g>
</g>
<g>
	<defs>
		<rect id="SVGID_00000069370496101442151770000015723984865573942690_" y="-289" width="158.7" height="362.3"/>
	</defs>
	<clipPath id="SVGID_00000143610035027966144560000015540407911359882647_">
		<use xlink:href="#SVGID_00000069370496101442151770000015723984865573942690_"  style="overflow:visible;"/>
	</clipPath>
	<g style="clip-path:url(#SVGID_00000143610035027966144560000015540407911359882647_);">
		<g>
			<defs>
				<path id="SVGID_00000168827014421476379450000014600013124531475334_" d="M-197.2-426.7c1.7,17.6,2.1,35.1,2.3,52.9
					c1,64,0.6,128.1,0,192.1c-0.6,64.3-1.4,128.5-1.4,193c0,0.6,0,1.2-0.2,1.9c0.6,0.2,1.2,0.6,1.9,1c0.8,0.6,1.4,1.7,2.3,2.7
					c1.9,2.3,3.7,4.5,5.4,6.8c1.9,2.7,3.7,5.2,5.6,7.9c0.8,1.2,1.7,2.5,2.5,3.5c0.6,0.8,1.7,1.2,2.3,1.9c2.1,1.7,4.3,3.3,6.4,5
					c2.1,1.7,4.1,3.1,6.6,4.1c5.6,2.5,11,5.2,16.5,7.6c3.1,1.4,6.2,2.7,9.5,4.1c0.2,0.2,0.8,0,1,0h1.2l0.2,0.2
					c0.4-1,0.8-1.9,1.4-2.9c0.6-0.8,1-2.3,2.5-2.3c0,0,0.2,0,0.2-0.2c0.6-1,1.7-1.2,2.9-1.4c1.2-0.2,2.3-0.8,3.3-1.2
					c0.2,0,0.2-0.2,0.4-0.2c1.4,0.4,2.5-0.6,3.7-1h0.2c1.2,0,2.3-0.6,3.5-0.8c1-0.2,2.1-0.2,3.1-0.8c1-0.6,2.3-1,3.3-1.4
					c1-0.4,2.1-0.6,3.1-1h1c1,0,1.9,0,2.7-0.6h0.4c1,0,2.3,0.2,3.3,0.2h0.8c1-0.2,1.4,0.6,2.1,1c1,1.2,2.3,1.4,3.9,1.2
					c1.4-0.2,2.7-0.4,4.1-0.4c0.6,0,1.4,0.2,2.1,0.4c0.6,0.2,1,0.4,1.7,0.6l0.6,0.6c0,0,0.2,0.6,0.4,0.8c0.4,0.2,0.8,0.2,1,0.4
					l0.2,0.2c1-0.6,1.4,0.4,2.1,0.6c0.8,0.4,1.4,0.8,2.3,1.4c0-0.2,0-0.4,0.2-0.6c1.2,0.2,2.7,0.2,3.9,1c0.2-0.4,0.6-0.8,1-1.2
					c0,0,0-0.2,0.2-0.2c1-0.2,1.7-0.8,1.9-1.9c0.2-0.4,0.2-0.8,0.2-1c0.8-0.4,1.4-0.8,2.3-1.2v-0.4c-0.6-1-0.6-1.2,0.4-1.7
					c0.2-0.2,0.2-0.4,0.4-0.4c0.4-0.2,0.8-0.4,1-0.6c0,0,0,0.2,0.2,0.2v-0.4c1.2-0.4,2.5-0.8,3.7-1.4c0.6-0.4,1.2-0.6,2.1-0.2
					c0.4,0.2,0.8,0,1.2-0.2c1-0.4,2.1-0.6,3.1-1c0.8-0.2,1.4-0.6,2.3-1c0,0,0.2-0.4,0-0.6c0-0.2-0.2-0.6-0.2-0.8
					c0.6-0.4,1-0.8,1.4-0.8c0.6-0.2,1.4-0.2,2.3-0.4c0.6-1.9,1.9-2.3,3.3-1.7l0.4-0.4c0.2,0.2,0.2,0.2,0.2,0.4
					c0.6-0.4,1.2-0.8,1.9-1c0.6-0.4,1.2-0.8,2.1-0.4c0-1,0.6-1,1.2-0.8c0.4,0,1-0.2,1.4-0.4c0.2,0,0.6-0.2,0.8,0
					c0.8,0.6,2.1,0.8,2.9,1.9c0.6,0.8,1.7,1.2,2.1,2.5c0.2,0.4,1,0.8,1.4,1c0,0,0.2,0,0.4,0.2c0.2,0.6,0.8,0.4,1.2,0.2
					c0.4,0,0.8-0.2,1,0.4c0,0.2,0.6,0.4,0.8,0.6c0.6,0.4,1.2,0.8,1.7,1.2c0.2,0.2,0.4,0.4,0.4,0.6c0,0.6,0.6,1,1.2,1
					c0.8,0.2,1.4,0.2,2.3,0.4c0.2,0,0.2,0.4,0.4,0.4c0.2,0.4,0.4,1,1.2,0.6c0.4-0.2,1.7,0.2,1.9,0.6c0.4,1.4,1.9,1.4,2.9,1.9
					c0.2,0,0.4,0,0.4,0.2c0.6,0.8,1.4,1,2.3,1.4c0.8,0.4,1.7,1.2,2.5,2.1l1,1c0.2,0.2,0.4,0.2,0.6,0.2c0.6,0,1.2-0.2,1.7,0.4
					c0,0,0.2,0.2,0.4,0.2c1.7-0.2,2.7,0.8,3.7,1.9c0.4,0.4,1.2,0.6,1.7,0.6c1.2,0.4,2.7,0.6,3.7,1.4c0.6,0.4,1.4,1,2.1,1
					c1,0,1.4,0.8,1.9,1.4c1.2,0.2,2.5,0.2,3.1,1.4c0,0.2,0.2,0.2,0.4,0.2c0.8,0.2,1.7,0.4,2.5,0.8c0.4,0.2,0.8,0.6,1.4,1
					c0.2,0,0.2,0.2,0.4,0.2c1.4,0,1.9,1,2.7,1.9c1.2,1,2.7,2.1,3.7,3.3c0.6,0.8,1.7,1.2,2.3,1.7l1.2,0.6c0.4,0.4,0.8,0.8,1.4,1.2
					c0.6,0.2,0.8,1,1.7,0.8c0.4,0,0.8,0.2,1.2,0.4c0.6,0.4,0.8,0.8,1.7,0.8c0.4,0,0.8,0.4,1,0.6c1,0.4,2.1,0.4,2.7-0.8l0.2-0.2
					c0.8,0.4,0.8-0.4,1-0.8c0.2-0.2,0.6-0.4,0.8-0.6c0.4-0.4,0.8-0.6,1.4-1c0.2-0.2,0.6-0.4,0.8-0.4c1,0,1.7-0.4,2.5-1.2
					c0.6-0.6,1.7-1,2.5-1.4c0.8-0.4,1.7-0.8,2.7-1c0.6-0.2,1.2-0.2,1.9-0.2h0.4c0.8-0.4,1.7-1,2.7-1.4h0.6c1,0.4,2.1,0.4,3.1-0.4
					c0.2-0.2,0.6-0.4,0.8-0.6c1,0.4,2.1,1.2,3.3,1.2c0.4,0,1-0.2,1.4-0.4c0.8,0,1.7,0,2.3-0.2c0.8-0.2,1.9,0,2.7-0.4
					c0.4-1,0.6-1,1.7-0.8c1.2,0.2,2.1,0,2.9-1c0.4-0.6,1.4-0.6,2.1-1c0.2,0,0.4-0.2,0.6-0.2c0.4-0.2,0.6-0.2,1-0.4
					c1-0.4,2.1-0.6,3.1-1.2c1-0.6,1.9-1,2.9-0.2h0.4c0.4-0.2,0.6-0.2,1-0.4c0-0.6,0-1.4,0.8-2.1c0.2-0.2,0.2-0.6,0.6-0.8
					c0.4-0.4,1-0.4,1.4-0.2c0.2,0.2,0.6,0,0.8,0c1.2-0.2,2.7-0.2,3.9-0.4c1.2-0.2,2.5-0.4,3.7-0.8c0.8-0.4,1.7-0.2,2.5-0.2
					c1.7,0.2,3.1,0.2,4.5-0.6l-0.4-0.4c0.4-0.2,0.8-0.2,1.4-0.2c0.4,0.6,1,0.2,1.4-0.2c0.6-0.6,1.2-0.4,2.1-0.4
					c0.8,0.2,1.9-0.2,2.9-0.4c0.2,0,0.4-0.4,0.4-0.6c0.4,0,0.8-0.2,1.4-0.2h0.8c0.8,0.4,1.7,0.4,2.5,0c0.2-0.2,0.6-0.2,0.8-0.2
					c0.6-0.2,1.2,0,1.7-0.6c0.2-0.2,0.6,0,1-0.2h6c0.8,0,1.9,0.2,2.7,0.4c1,0.2,1.9,0,2.7-0.2h1.4c0.6,0,1.2,0.2,1.9,0
					c0.4,0,0.6-0.4,0.8-0.8c0.4-0.6,1-0.8,1.9-0.8c0.6,0,1.2-0.2,1.9-0.4h0.4c0.8,1.2,2.1,0.4,3.1,0.6h0.4c0.8,0.4,1.9,0.8,2.7,1
					c1,0.2,1.9,1.2,2.7,1.2c1.4,0,2.7,1,3.9,1.2c1,0.2,2.1,0.6,3.1,1c0.4,0.2,1,0,1.4,0c1.2,0.2,2.5,0.2,3.7,0.4h0.2
					c1.4-0.2,2.9,0.2,4.3,0.2c0.2-36.8-0.8-73.5-2.1-110.3c-1.2-34.9-2.5-69.8-2.7-104.8c0-17.6,0.2-34.9,0.6-52.5
					c0.6-17.6,1.9-35.1,2.7-52.7c2.5-55.6,1-111.4,0.2-166.9c-0.6-0.2-1-0.4-1.4-0.6c-0.6-0.4-1.2-0.6-2.1-0.4h-1.2
					c-0.6,0-1.4,0-1.9,0.8c0,0-0.2,0.2-0.4,0.2h-0.8c-0.2-0.4,0.2-1.2-0.8-1c-0.4,0-1,0.2-1.4,0.2h-3.1c-0.2-0.4-0.4-0.8-0.8-1.4
					c-0.2-0.4-0.4-0.6-1-0.2c-0.4,0.2-0.6,0.2-0.8-0.2c-0.6-1-1.2-1.9-2.5-2.1c-0.2,0-0.4-0.4-0.6-0.6c-0.4-0.4-0.6-0.8-1.2-0.8
					c-0.2,0-0.6-0.4-0.6-0.6c-0.2-0.8-0.2-1.4-0.2-2.3c-0.2-0.8-0.6-1.7-1.2-2.1c-1-0.6-1.9-1.4-2.9-2.1c-0.2-0.2-0.6-0.4-1-0.4
					c-0.6-0.2-1.2-0.4-1.9-0.4c-0.6,0-1.4,0-2.1,0.4c-1.2,0.6-2.3-0.2-3.3-0.2c-1-0.2-2.1-0.6-2.9-0.8h-2.7c-2.3,0.4-4.1-0.8-6.4-1
					c-0.6,0-1.2-0.6-1.9-1c-0.4-0.4-0.8-0.4-1.4-0.2c-0.8,0.2-1.7,0-2.5,0.2c-1.2,0.4-2.3-0.6-3.5-0.6c-1,0.2-2.1,0.2-3.1,0.4
					l-2.5,0.6c-1.7,0.8-2.9-0.2-4.3-0.6c-1-0.2-1.7-0.6-2.5-1.2c-0.8-0.6-1.7,0-2.3,0c-0.6,0-1,0.6-1.4,0.8
					c-0.6,0.2-1.2,0.2-1.9,0.2c-0.6,0-1.4-0.2-2.1,0c-1,0.4-1.9,1-2.7,1.4c-0.2,0.2-0.4,0.4-0.6,0.4c-1.4,0.8-3.1,1-5,1
					c-1,0-2.1,0-3.1-0.2c-0.6,0-1-0.6-1.4-0.6c-1.4-0.2-2.7-0.2-4.1-0.2c-0.2,0-0.4,0.2-0.6,0.2c-0.8,0.4-1.7,1-2.5,1.4
					c-1.4,0.4-2.9,0.8-4.3,1h-0.6c-1.2-0.6-2.3,0-3.5,0.2c-1.2,0.4-2.5,1-3.7,1.4c-0.4,0.2-0.8,0-1.2-0.2c-0.6-0.2-1-0.2-1.4,0.2
					c-0.2,0.2-0.4,0.2-0.6,0.2c-0.6,0.2-1.2,0.2-1.7,0.4c-0.8,0.6-1.7,0.4-2.5,0.8c-0.8,0.4-1.7,0.4-2.3,1c-0.2,0.2-0.6,0.2-1,0.2
					c-1,0.2-1.9,0.8-2.5,1.7c-0.8,0.8-1.7,1.4-2.5,2.1c-0.2,0.2-0.8,0.2-1,0.2c-0.8,0-1.7-0.2-2.3-0.4c-0.4,0-0.6-0.2-1-0.2
					c-1.2,0.6-2.7,0.2-3.9,0.2c-0.2,0-0.6-0.2-0.8-0.4c-0.8-0.6-1.7-0.6-2.5-0.2c-0.6,0.2-1.2,0.2-1.7-0.2c-0.8-0.6-1.9-1-2.9-1.2
					c-0.8-0.2-1.7-0.6-2.5-1c-0.4-0.2-0.8,0-1.2,0c-0.4,0-0.6,0.2-1,0.2c-1.2,0.2-2.5,0.6-3.5,0.4c-1.4-0.4-2.9-0.2-4.1-1
					c-0.6-0.4-0.8,0-1.2,0c-0.2,0-0.4,0-0.8,0.2c-0.2,0.6-1,1-2.1,0.6c-0.6-0.2-1-0.2-1.7,0c-0.6,0.2-1.2,0.2-2.1,0.4h-0.2
					c-1.7,1-3.3,0.2-5.2,0.2h-1c-1.2,0.2-1.9-0.8-2.7-1.4c-0.8-0.6-1.7-1.4-2.5-1.9c-0.2-0.2-0.8,0-1.2,0h-1.9l-0.2-0.2
					c-1.4,0.4-2.3-0.4-3.3-1.2c-0.6-0.4-1.4-0.8-2.1-1c-0.8-0.4-1.9-0.6-2.3-1.7c-0.2-0.4-0.6-0.4-0.8-0.8c-0.2-0.4-0.4-0.8-0.4-1
					c0-0.4,0.2-0.8,0.4-1.2c0.2-0.6-0.2-1.2-0.8-1.7c-0.2-0.2-0.6-0.2-0.6-0.4c-0.4-1.2-1.4-1.7-2.3-2.7c-0.6-0.6-1-1.4-1.4-2.3
					c-0.4-0.4-0.6-0.8-1.2-1.2c-1.4-0.6-2.9-1.2-4.3-2.1c0,1.7-0.4,1.2-0.6,0.8c0-0.6-0.4-0.8-1-0.8c0,0-0.2,0-0.2-0.2
					c-0.2-1.2-1.2-0.8-1.9-1c-0.4-0.2-0.8-0.4-1.2-0.2c-0.8,0.2-1.4-0.4-2.3-0.6c-0.2,0-0.4,0-0.6,0.2c-0.4,0.4-0.8,0.4-1.4,0
					c-0.8-0.6-1.7-0.6-2.7-0.2c-0.4,0.2-0.8,0.2-1.2,0c-0.8-0.4-1.7-1-2.7-1.4c-0.2,0-0.4-0.2-0.6-0.2c-1.2,0.2-2.3-0.2-3.5,0.2
					c-0.6,0.2-1.4,0.2-1.9,1c-0.2,0.2-0.8,0.2-1.2,0.4c-1,0.2-2.1,0.4-3.1,0c-0.8-0.4-1.9-0.2-2.7-0.4c-0.6-0.2-1-0.6-1.4-0.8
					c-0.2-0.2-0.4-0.4-0.6-0.4c-1.2-0.4-2.3-1.2-2.9-2.3c-0.4-0.6-1-1.2-1.4-1.9c-1.4-0.4-1.2-2.1-2.1-2.9c-0.6-0.8-1.2-1.2-2.3-1.4
					h-0.2c-1-0.8-2.1-0.2-3.3-0.2c-0.4,0-1-0.4-1.4-0.6c-0.2-0.4-0.4-0.6-0.6-0.6c-1.2-0.2-2.3-1-3.3-2.1c-0.4,0.2-0.8,0.4-1.2,0.4
					c-0.4,0.2-1,0.2-1.7,0.2c-0.8-0.2-1.7,0-2.5,0.6c-0.4,0.2-0.6,0.4-1,0.6c-0.4,0.2-0.6,0.6-1,0.8c-0.2,0.2-0.6,0.2-0.8,0.4
					l-1.2,0.6c0,0-0.2,0.2-0.2,0c-0.8-0.4-1.4,0.4-2.1,0.8c-0.6,0.4-1.4,0.4-2.1,0.8h-0.2c-1,0.2-2.1,0.6-3.1,0.8
					c-0.4,0-0.6,0.2-1,0.4c-0.6,0.2-1.2,0.6-1.9,0.8c-0.4,0.2-1,0.4-1.4,0.6h-0.6c0,0-0.4,0-0.6,0.4c-0.8-0.4-1.9-0.6-2.7-1
					c-0.6-0.2-2.1,0.2-2.5,0.8c-0.2,0.2-0.4,0.4-0.6,0.4c-0.2,0-0.6-0.2-0.8-0.2c-0.2,0-0.4,0.2-0.8,0.2c0,0.2,0.2,0.4,0.2,0.6
					c-0.6,0.2-1.7,1.9-1.7,2.7c-1,0.4-2.3,0.6-2.7,1.9c0,0.2-0.2,0.2-0.2,0.4c-1.2,0.2-1.4,1.4-2.1,2.5v0.4c-0.2,0-0.4,0.2-0.6,0.2
					c-0.8,0.4-1.2,1-1.4,2.1c-0.2,1-0.2,1.9-0.4,2.9c-0.4-0.2-1,0.2-1.2-0.4h-0.4c-0.6,0.8-1.2,1.7-1.9,2.3c-0.6,0.4-1.2,0.6-2.1,1
					v0.4c-0.8-0.2-1.4-0.4-2.1-0.8c-0.2,0-0.4-0.2-0.4-0.2c-0.2,0-0.2-0.2-0.2-0.2c-0.2,0-0.2,0.2-0.2,0.4c0,0.8-0.4,0.6-0.8,0.4
					c-0.4-0.2-0.8-0.2-1,0.4c0,0.2-0.2,0.4-0.4,0.4c-0.6,0.2-1.2,0.4-1.4,1c-0.2,0.4-0.4,0.6-0.8,1h-3.1c-0.4,0-0.8,0-1.2,0.2
					c-0.4,0-0.8,0.2-1.4,0.4c-0.4,0.2-1,0.6-1.4,0.8c-0.2,0.2-0.4,0.2-0.6,0.2c-1,0-1.7,0.6-2.3,1.2c-0.6,0.4-1,1-1.7,1.4
					c-0.4,0.2-0.8,0.4-1,0.6c-0.4,0.2-0.6,0.6-1,0.6c-0.4,0.2-1,0.2-1.4,0c-0.6-0.4-1.2,0-1.7,0.2c-0.6,0.2-1,0.6-1.4,0.8
					c0.2,0.2,0.2,0.4,0.4,0.6h-0.6c0,0.2-0.2,0.4-0.2,0.6c-0.2,0-0.4-0.2-0.4-0.2c-0.6,0.4-1.2,0.8-1.9,1c-0.2,0-0.4,0.2-0.4,0.2
					c-0.8-0.2-1.9,0-2.5-0.6c-0.4-0.4-1-0.6-1.4-1c-0.6-0.4-1.4-0.2-2.1,0.8l-2.9-2.9c-0.2,0.2-0.6,0.4-0.8,0.6
					c-0.2,0-0.2,0.2-0.4,0.2c-0.8,0.2-1.7,0.4-2.7,0.6c-0.6,0.2-1,0.4-1,1.2c-0.8,0.4-1.7,0.2-2.3,1h-0.6c-1.2-0.6-2.3-0.4-3.1,0.6
					c-0.2,0.2-0.4,0.2-0.8,0.2c-1-0.2-1.9,0.4-2.7,1c-0.4,0.4-0.8,0.6-1.4,0.6c-1,0.2-1.9,0.2-2.9,0.2c0,0-0.2,0-0.2,0.2
					c-0.8,1-1.9,1-3.1,1c-1.2,0-2.5,0.2-3.5,1.2c-0.6,0.6-1.4,1-2.3,1.7c-0.2,0-0.4,0.2-0.4,0.2c-0.6,0-1.4-0.2-2.1-0.2
					C-197.8-432-197.4-429.3-197.2-426.7z"/>
			</defs>
			<clipPath id="SVGID_00000066478686119282734640000016356954601704444549_">
				<use xlink:href="#SVGID_00000168827014421476379450000014600013124531475334_"  style="overflow:visible;"/>
			</clipPath>
			<g style="clip-path:url(#SVGID_00000066478686119282734640000016356954601704444549_);">
				<g transform="matrix(0.393654, 0, 0, 0.394019, -282.067132, -141.97989)">
					
						<image style="overflow:visible;enable-background:new    ;" width="1358" height="1050" xlink:href="509040AF.png"  transform="matrix(1.3333 0 0 1.3333 -238.8453 -853.5797)">
					</image>
				</g>
			</g>
		</g>
	</g>
</g>
<g>
	<defs>
		<rect id="SVGID_00000152972885637954750410000017321029302119114916_" y="-289" width="380" height="338.6"/>
	</defs>
	<clipPath id="SVGID_00000036936340912977191960000011934849099462489475_">
		<use xlink:href="#SVGID_00000152972885637954750410000017321029302119114916_"  style="overflow:visible;"/>
	</clipPath>
	<g style="clip-path:url(#SVGID_00000036936340912977191960000011934849099462489475_);">
		<g>
			<defs>
				<path id="SVGID_00000013166790690217774230000015073570092881440150_" d="M-21.7-513.9c1.9,19.8,2.3,39.6,2.6,59.6
					c1.2,72.2,0.7,144.4,0,216.6c-0.7,72.4-1.6,144.8-1.6,217.5c0,0.7,0,1.4-0.2,2.1c0.7,0.2,1.4,0.7,2.1,1.2c0.9,0.7,1.6,1.9,2.6,3
					c2.1,2.6,4.2,5.1,6.1,7.7c2.1,3,4.2,5.8,6.3,8.8c0.9,1.4,1.9,2.8,2.8,4c0.7,0.9,1.9,1.4,2.6,2.1c2.3,1.9,4.9,3.7,7.2,5.6
					c2.3,1.9,4.7,3.5,7.4,4.7c6.3,2.8,12.3,5.8,18.6,8.6c3.5,1.6,7,3,10.7,4.7c0.2,0.2,0.9,0,1.2,0h1.4l0.2,0.2
					c0.5-1.2,0.9-2.1,1.6-3.3c0.7-0.9,1.2-2.6,2.8-2.6c0,0,0.2,0,0.2-0.2c0.7-1.2,1.9-1.4,3.3-1.6c1.4-0.2,2.6-0.9,3.7-1.4
					c0.2,0,0.2-0.2,0.5-0.2c1.6,0.5,2.8-0.7,4.2-1.2h0.2c1.4,0,2.6-0.7,4-0.9c1.2-0.2,2.3-0.2,3.5-0.9c1.2-0.7,2.6-1.2,3.7-1.6
					c1.2-0.5,2.3-0.7,3.5-1.2h1.2c1.2,0,2.1,0,3-0.7H84c1.2,0,2.6,0.2,3.7,0.2h0.9c1.2-0.2,1.6,0.7,2.3,1.2c1.2,1.4,2.6,1.6,4.4,1.4
					c1.6-0.2,3-0.5,4.7-0.5c0.7,0,1.6,0.2,2.3,0.5c0.7,0.2,1.2,0.5,1.9,0.7l0.7,0.7c0,0,0.2,0.7,0.5,0.9c0.5,0.2,0.9,0.2,1.2,0.5
					l0.2,0.2c1.2-0.7,1.6,0.5,2.3,0.7c0.9,0.5,1.6,0.9,2.6,1.6c0-0.2,0-0.5,0.2-0.7c1.4,0.2,3,0.2,4.4,1.2c0.2-0.5,0.7-0.9,1.2-1.4
					c0,0,0-0.2,0.2-0.2c1.2-0.2,1.9-0.9,2.1-2.1c0.2-0.5,0.2-0.9,0.2-1.2c0.9-0.5,1.6-0.9,2.6-1.4v-0.5c-0.7-1.2-0.7-1.4,0.5-1.9
					c0.2-0.2,0.2-0.5,0.5-0.5c0.5-0.2,0.9-0.5,1.2-0.7c0,0,0,0.2,0.2,0.2v-0.5c1.4-0.5,2.8-0.9,4.2-1.6c0.7-0.5,1.4-0.7,2.3-0.2
					c0.5,0.2,0.9,0,1.4-0.2c1.2-0.5,2.3-0.7,3.5-1.2c0.9-0.2,1.6-0.7,2.6-1.2c0,0,0.2-0.5,0-0.7c0-0.2-0.2-0.7-0.2-0.9
					c0.7-0.5,1.2-0.9,1.6-0.9c0.7-0.2,1.6-0.2,2.6-0.5c0.7-2.1,2.1-2.6,3.7-1.9l0.5-0.5c0.2,0.2,0.2,0.2,0.2,0.5
					c0.7-0.5,1.4-0.9,2.1-1.2c0.7-0.5,1.4-0.9,2.3-0.5c0-1.2,0.7-1.2,1.4-0.9c0.5,0,1.2-0.2,1.6-0.5c0.2,0,0.7-0.2,0.9,0
					c0.9,0.7,2.3,0.9,3.3,2.1c0.7,0.9,1.9,1.4,2.3,2.8c0.2,0.5,1.2,0.9,1.6,1.2c0,0,0.2,0,0.5,0.2c0.2,0.7,0.9,0.5,1.4,0.2
					c0.5,0,0.9-0.2,1.2,0.5c0,0.2,0.7,0.5,0.9,0.7c0.7,0.5,1.4,0.9,1.9,1.4c0.2,0.2,0.5,0.5,0.5,0.7c0,0.7,0.7,1.2,1.4,1.2
					c0.9,0.2,1.6,0.2,2.6,0.5c0.2,0,0.2,0.5,0.5,0.5c0.2,0.5,0.5,1.2,1.4,0.7c0.5-0.2,1.9,0.2,2.1,0.7c0.5,1.6,2.1,1.6,3.3,2.1
					c0.2,0,0.5,0,0.5,0.2c0.7,0.9,1.6,1.2,2.6,1.6c0.9,0.5,1.9,1.4,2.8,2.3l1.2,1.2c0.2,0.2,0.5,0.2,0.7,0.2c0.7,0,1.4-0.2,1.9,0.5
					c0,0,0.2,0.2,0.5,0.2c1.9-0.2,3,0.9,4.2,2.1c0.5,0.5,1.4,0.7,1.9,0.7c1.4,0.5,3,0.7,4.2,1.6c0.7,0.5,1.6,1.2,2.3,1.2
					c1.2,0,1.6,0.9,2.1,1.6c1.4,0.2,2.8,0.2,3.5,1.6c0,0.2,0.2,0.2,0.5,0.2c0.9,0.2,1.9,0.5,2.8,0.9c0.5,0.2,0.9,0.7,1.6,1.2
					c0.2,0,0.2,0.2,0.5,0.2c1.6,0,2.1,1.2,3,2.1c1.4,1.2,3,2.3,4.2,3.7c0.7,0.9,1.9,1.4,2.6,1.9l1.4,0.7c0.5,0.5,0.9,0.9,1.6,1.4
					c0.7,0.2,0.9,1.2,1.9,0.9c0.5,0,0.9,0.2,1.4,0.5c0.7,0.5,0.9,0.9,1.9,0.9c0.5,0,0.9,0.5,1.2,0.7c1.2,0.5,2.3,0.5,3-0.9l0.2-0.2
					c0.9,0.5,0.9-0.5,1.2-0.9c0.2-0.2,0.7-0.5,0.9-0.7c0.5-0.5,0.9-0.7,1.6-1.2c0.2-0.2,0.7-0.5,0.9-0.5c1.2,0,1.9-0.5,2.8-1.4
					c0.7-0.7,1.9-1.2,2.8-1.6c0.9-0.5,1.9-0.9,3-1.2c0.7-0.2,1.4-0.2,2.1-0.2h0.5c0.9-0.5,1.9-1.2,3-1.6h0.7
					c1.2,0.5,2.3,0.5,3.5-0.5c0.2-0.2,0.7-0.5,0.9-0.7c1.2,0.5,2.3,1.4,3.7,1.4c0.5,0,1.2-0.2,1.6-0.5c0.9,0,1.9,0,2.6-0.2
					c0.9-0.2,2.1,0,3-0.5c0.5-1.2,0.7-1.2,1.9-0.9c1.4,0.2,2.3,0,3.3-1.2c0.5-0.7,1.6-0.7,2.3-1.2c0.2,0,0.5-0.2,0.7-0.2
					c0.5-0.2,0.7-0.2,1.2-0.5c1.2-0.5,2.3-0.7,3.5-1.4c1.2-0.7,2.1-1.2,3.3-0.2h0.5c0.5-0.2,0.7-0.2,1.2-0.5c0-0.7,0-1.6,0.9-2.3
					c0.2-0.2,0.2-0.7,0.7-0.9c0.5-0.5,1.2-0.5,1.6-0.2c0.2,0.2,0.7,0,0.9,0c1.4-0.2,3-0.2,4.4-0.5s2.8-0.5,4.2-0.9
					c0.9-0.5,1.9-0.2,2.8-0.2c1.9,0.2,3.5,0.2,5.1-0.7l-0.5-0.5c0.5-0.2,0.9-0.2,1.6-0.2c0.5,0.7,1.2,0.2,1.6-0.2
					c0.7-0.7,1.4-0.5,2.3-0.5c0.9,0.2,2.1-0.2,3.3-0.5c0.2,0,0.5-0.5,0.5-0.7c0.5,0,0.9-0.2,1.6-0.2h0.9c0.9,0.5,1.9,0.5,2.8,0
					c0.2-0.2,0.7-0.2,0.9-0.2c0.7-0.2,1.4,0,1.9-0.7c0.2-0.2,0.7,0,1.2-0.2h6.8c0.9,0,2.1,0.2,3,0.5c1.2,0.2,2.1,0,3-0.2h1.6
					c0.7,0,1.4,0.2,2.1,0c0.5,0,0.7-0.5,0.9-0.9c0.5-0.7,1.2-0.9,2.1-0.9c0.7,0,1.4-0.2,2.1-0.5h0.5c0.9,1.4,2.3,0.5,3.5,0.7h0.5
					c0.9,0.5,2.1,0.9,3,1.2c1.2,0.2,2.1,1.4,3,1.4c1.6,0,3,1.2,4.4,1.4c1.2,0.2,2.3,0.7,3.5,1.2c0.5,0.2,1.2,0,1.6,0
					c1.4,0.2,2.8,0.2,4.2,0.5h0.2c1.6-0.2,3.3,0.2,4.9,0.2c0.2-41.4-0.9-82.9-2.3-124.3c-1.4-39.3-2.8-78.7-3-118.1
					c0-19.8,0.2-39.4,0.7-59.1c0.7-19.8,2.1-39.6,3-59.4c2.8-62.6,1.2-125.5,0.2-188.2c-0.7-0.2-1.2-0.5-1.6-0.7
					c-0.7-0.5-1.4-0.7-2.3-0.5H372c-0.7,0-1.6,0-2.1,0.9c0,0-0.2,0.2-0.5,0.2h-0.9c-0.2-0.5,0.2-1.4-0.9-1.2c-0.5,0-1.2,0.2-1.6,0.2
					h-3.5c-0.2-0.5-0.5-0.9-0.9-1.6c-0.2-0.5-0.5-0.7-1.2-0.2c-0.5,0.2-0.7,0.2-0.9-0.2c-0.7-1.2-1.4-2.1-2.8-2.3
					c-0.2,0-0.5-0.5-0.7-0.7c-0.5-0.5-0.7-0.9-1.4-0.9c-0.2,0-0.7-0.5-0.7-0.7c-0.2-0.9-0.2-1.6-0.2-2.6c-0.2-0.9-0.7-1.9-1.4-2.3
					c-1.2-0.7-2.1-1.6-3.3-2.3c-0.2-0.2-0.7-0.5-1.2-0.5c-0.7-0.2-1.4-0.5-2.1-0.5c-0.7,0-1.6,0-2.3,0.5c-1.4,0.7-2.6-0.2-3.7-0.2
					c-1.2-0.2-2.3-0.7-3.3-0.9h-3c-2.6,0.5-4.7-0.9-7.2-1.2c-0.7,0-1.4-0.7-2.1-1.2c-0.5-0.5-0.9-0.5-1.6-0.2
					c-0.9,0.2-1.9,0-2.8,0.2c-1.4,0.5-2.6-0.7-4-0.7c-1.2,0.2-2.3,0.2-3.5,0.5l-2.8,0.7c-1.9,0.9-3.3-0.2-4.9-0.7
					c-1.2-0.2-1.9-0.7-2.8-1.4c-0.9-0.7-1.9,0-2.6,0c-0.7,0-1.2,0.7-1.6,0.9c-0.7,0.2-1.4,0.2-2.1,0.2c-0.7,0-1.6-0.2-2.3,0
					c-1.2,0.5-2.1,1.2-3,1.6c-0.2,0.2-0.5,0.5-0.7,0.5c-1.6,0.9-3.5,1.2-5.6,1.2c-1.2,0-2.3,0-3.5-0.2c-0.7,0-1.2-0.7-1.6-0.7
					c-1.6-0.2-3-0.2-4.7-0.2c-0.2,0-0.5,0.2-0.7,0.2c-0.9,0.5-1.9,1.2-2.8,1.6c-1.6,0.5-3.3,0.9-4.9,1.2h-0.7c-1.4-0.7-2.6,0-4,0.2
					c-1.4,0.5-2.8,1.2-4.2,1.6c-0.5,0.2-0.9,0-1.4-0.2c-0.7-0.2-1.2-0.2-1.6,0.2c-0.2,0.2-0.5,0.2-0.7,0.2c-0.7,0.2-1.4,0.2-1.9,0.5
					c-0.9,0.7-1.9,0.5-2.8,0.9c-0.9,0.5-1.9,0.5-2.6,1.2c-0.2,0.2-0.7,0.2-1.2,0.2c-1.2,0.2-2.1,0.9-2.8,1.9
					c-0.9,0.9-1.9,1.6-2.8,2.3c-0.2,0.2-0.9,0.2-1.2,0.2c-0.9,0-1.9-0.2-2.6-0.5c-0.5,0-0.7-0.2-1.2-0.2c-1.4,0.7-3,0.2-4.4,0.2
					c-0.2,0-0.7-0.2-0.9-0.5c-0.9-0.7-1.9-0.7-2.8-0.2c-0.7,0.2-1.4,0.2-1.9-0.2c-0.9-0.7-2.1-1.2-3.3-1.4c-0.9-0.2-1.9-0.7-2.8-1.2
					c-0.5-0.2-0.9,0-1.4,0c-0.5,0-0.7,0.2-1.2,0.2c-1.4,0.2-2.8,0.7-4,0.5c-1.6-0.5-3.3-0.2-4.7-1.2c-0.7-0.5-0.9,0-1.4,0
					c-0.2,0-0.5,0-0.9,0.2c-0.2,0.7-1.2,1.2-2.3,0.7c-0.7-0.2-1.2-0.2-1.9,0c-0.7,0.2-1.4,0.2-2.3,0.5h-0.2
					c-1.9,1.2-3.7,0.2-5.8,0.2h-1.2c-1.4,0.2-2.1-0.9-3-1.6c-0.9-0.7-1.9-1.6-2.8-2.1c-0.2-0.2-0.9,0-1.4,0h-2.1l-0.2-0.2
					c-1.6,0.5-2.6-0.5-3.7-1.4c-0.7-0.5-1.6-0.9-2.3-1.2c-0.9-0.5-2.1-0.7-2.6-1.9c-0.2-0.5-0.7-0.5-0.9-0.9
					c-0.2-0.5-0.5-0.9-0.5-1.2c0-0.5,0.2-0.9,0.5-1.4c0.2-0.7-0.2-1.4-0.9-1.9c-0.2-0.2-0.7-0.2-0.7-0.5c-0.5-1.4-1.6-1.9-2.6-3
					c-0.7-0.7-1.2-1.6-1.6-2.6c-0.5-0.5-0.7-0.9-1.4-1.4c-1.6-0.7-3.3-1.4-4.9-2.3c0,1.9-0.5,1.4-0.7,0.9c0-0.7-0.5-0.9-1.2-0.9
					c0,0-0.2,0-0.2-0.2c-0.2-1.4-1.4-0.9-2.1-1.2c-0.5-0.2-0.9-0.5-1.4-0.2c-0.9,0.2-1.6-0.5-2.6-0.7c-0.2,0-0.5,0-0.7,0.2
					c-0.5,0.5-0.9,0.5-1.6,0c-0.9-0.7-1.9-0.7-3-0.2c-0.5,0.2-0.9,0.2-1.4,0c-0.9-0.5-1.9-1.2-3-1.6c-0.2,0-0.5-0.2-0.7-0.2
					c-1.4,0.2-2.6-0.2-4,0.2c-0.7,0.2-1.6,0.2-2.1,1.2c-0.2,0.2-0.9,0.2-1.4,0.5c-1.2,0.2-2.3,0.5-3.5,0c-0.9-0.5-2.1-0.2-3-0.5
					c-0.7-0.2-1.2-0.7-1.6-0.9c-0.2-0.2-0.5-0.5-0.7-0.5c-1.4-0.5-2.6-1.4-3.3-2.6c-0.5-0.7-1.2-1.4-1.6-2.1
					c-1.6-0.5-1.4-2.3-2.3-3.3c-0.7-0.9-1.4-1.4-2.6-1.6h-0.2c-1.2-0.9-2.3-0.2-3.7-0.2c-0.5,0-1.2-0.5-1.6-0.7
					c-0.2-0.5-0.5-0.7-0.7-0.7c-1.4-0.2-2.6-1.2-3.7-2.3c-0.5,0.2-0.9,0.5-1.4,0.5c-0.5,0.2-1.2,0.2-1.9,0.2c-0.9-0.2-1.9,0-2.8,0.7
					c-0.5,0.2-0.7,0.5-1.2,0.7c-0.5,0.2-0.7,0.7-1.2,0.9c-0.2,0.2-0.7,0.2-0.9,0.5l-1.4,0.7c0,0-0.2,0.2-0.2,0
					c-0.9-0.5-1.6,0.5-2.3,0.9c-0.7,0.5-1.6,0.5-2.3,0.9h-0.2c-1.2,0.2-2.3,0.7-3.5,0.9c-0.5,0-0.7,0.2-1.2,0.5
					c-0.7,0.2-1.4,0.7-2.1,0.9c-0.5,0.2-1.2,0.5-1.6,0.7H80c0,0-0.5,0-0.7,0.5c-0.9-0.5-2.1-0.7-3-1.2c-0.7-0.2-2.3,0.2-2.8,0.9
					c-0.2,0.2-0.5,0.5-0.7,0.5s-0.7-0.2-0.9-0.2c-0.2,0-0.5,0.2-0.9,0.2c0,0.2,0.2,0.5,0.2,0.7c-0.7,0.2-1.9,2.1-1.9,3
					c-1.2,0.5-2.6,0.7-3,2.1c0,0.2-0.2,0.2-0.2,0.5c-1.4,0.2-1.6,1.6-2.3,2.8v0.5c-0.2,0-0.5,0.2-0.7,0.2c-0.9,0.5-1.4,1.2-1.6,2.3
					c-0.2,1.2-0.2,2.1-0.5,3.3c-0.5-0.2-1.2,0.2-1.4-0.5h-0.5c-0.7,0.9-1.4,1.9-2.1,2.6c-0.7,0.5-1.4,0.7-2.3,1.2v0.5
					c-0.9-0.2-1.6-0.5-2.3-0.9c-0.2,0-0.5-0.2-0.5-0.2c-0.2,0-0.2-0.2-0.2-0.2c-0.2,0-0.2,0.2-0.2,0.5c0,0.9-0.5,0.7-0.9,0.5
					c-0.5-0.2-0.9-0.2-1.2,0.5c0,0.2-0.2,0.5-0.5,0.5c-0.7,0.2-1.4,0.5-1.6,1.2c-0.2,0.5-0.5,0.7-0.9,1.2h-3.5c-0.5,0-0.9,0-1.4,0.2
					c-0.5,0-0.9,0.2-1.6,0.5c-0.5,0.2-1.2,0.7-1.6,0.9c-0.2,0.2-0.5,0.2-0.7,0.2c-1.2,0-1.9,0.7-2.6,1.4c-0.7,0.5-1.2,1.2-1.9,1.6
					c-0.5,0.2-0.9,0.5-1.2,0.7c-0.5,0.2-0.7,0.7-1.2,0.7c-0.5,0.2-1.2,0.2-1.6,0c-0.7-0.5-1.4,0-1.9,0.2c-0.7,0.2-1.2,0.7-1.6,0.9
					c0.2,0.2,0.2,0.5,0.5,0.7h-0.7c0,0.2-0.2,0.5-0.2,0.7c-0.2,0-0.5-0.2-0.5-0.2c-0.7,0.5-1.4,0.9-2.1,1.2c-0.2,0-0.5,0.2-0.5,0.2
					c-0.9-0.2-2.1,0-2.8-0.7c-0.5-0.5-1.2-0.7-1.6-1.2c-0.7-0.5-1.6-0.2-2.3,0.9l-3.3-3.3c-0.2,0.2-0.7,0.5-0.9,0.7
					c-0.2,0-0.2,0.2-0.5,0.2c-0.9,0.2-1.9,0.5-3,0.7c-0.7,0.2-1.2,0.5-1.2,1.4c-0.9,0.5-1.9,0.2-2.6,1.2H3.2
					c-1.4-0.7-2.6-0.5-3.5,0.7c-0.2,0.2-0.5,0.2-0.9,0.2c-1.2-0.2-2.1,0.5-3,1.2c-0.5,0.5-0.9,0.7-1.6,0.7c-1.2,0.2-2.1,0.2-3.3,0.2
					c0,0-0.2,0-0.2,0.2c-0.9,1.2-2.1,1.2-3.5,1.2c-1.4,0-2.8,0.2-4,1.4c-0.7,0.7-1.6,1.2-2.6,1.9c-0.2,0-0.5,0.2-0.5,0.2
					c-0.7,0-1.6-0.2-2.3-0.2C-22.4-520-22-517-21.7-513.9z"/>
			</defs>
			<use xlink:href="#SVGID_00000013166790690217774230000015073570092881440150_"  style="overflow:visible;fill:#131313;"/>
			<clipPath id="SVGID_00000127027517862586852610000002998768279199746997_">
				<use xlink:href="#SVGID_00000013166790690217774230000015073570092881440150_"  style="overflow:visible;"/>
			</clipPath>
			<g style="clip-path:url(#SVGID_00000127027517862586852610000002998768279199746997_);">
				<path class="st10" d="M-22.7-572.2h402.8V49.6H-22.7V-572.2z"/>
			</g>
		</g>
	</g>
</g>
<g>
	<defs>
		<rect id="SVGID_00000033356457038528166360000015850287638283253689_" x="108" y="-289" width="417.3" height="350.1"/>
	</defs>
	<clipPath id="SVGID_00000042722671996920406570000003106588409203876031_">
		<use xlink:href="#SVGID_00000033356457038528166360000015850287638283253689_"  style="overflow:visible;"/>
	</clipPath>
	<g style="clip-path:url(#SVGID_00000042722671996920406570000003106588409203876031_);">
		<g>
			<defs>
				<path id="SVGID_00000062885607393368696500000005200352992279880101_" d="M109-523.2c1.9,20.5,2.4,41,2.7,61.8
					c1.2,74.8,0.7,149.7,0,224.5c-0.7,75.1-1.7,150.2-1.7,225.5c0,0.7,0,1.4-0.2,2.2c0.7,0.2,1.4,0.7,2.2,1.2c1,0.7,1.7,1.9,2.7,3.1
					c2.2,2.7,4.3,5.3,6.3,8c2.2,3.1,4.3,6,6.5,9.2c1,1.4,1.9,2.9,2.9,4.1c0.7,1,1.9,1.4,2.7,2.2c2.4,1.9,5.1,3.9,7.5,5.8
					s4.8,3.6,7.7,4.8c6.5,2.9,12.8,6,19.3,8.9c3.6,1.7,7.2,3.1,11.1,4.8c0.2,0.2,1,0,1.2,0h1.4l0.2,0.2c0.5-1.2,1-2.2,1.7-3.4
					c0.7-1,1.2-2.7,2.9-2.7c0,0,0.2,0,0.2-0.2c0.7-1.2,1.9-1.5,3.4-1.7c1.4-0.2,2.7-1,3.9-1.4c0.2,0,0.2-0.2,0.5-0.2
					c1.7,0.5,2.9-0.7,4.3-1.2h0.2c1.4,0,2.7-0.7,4.1-1c1.2-0.2,2.4-0.2,3.6-1c1.2-0.7,2.7-1.2,3.9-1.7c1.2-0.5,2.4-0.7,3.6-1.2h1.2
					c1.2,0,2.2,0,3.1-0.7h0.5c1.2,0,2.7,0.2,3.9,0.2h1c1.2-0.2,1.7,0.7,2.4,1.2c1.2,1.4,2.7,1.7,4.6,1.4c1.7-0.2,3.1-0.5,4.8-0.5
					c0.7,0,1.7,0.2,2.4,0.5c0.7,0.2,1.2,0.5,1.9,0.7l0.7,0.7c0,0,0.2,0.7,0.5,1c0.5,0.2,1,0.2,1.2,0.5l0.2,0.2
					c1.2-0.7,1.7,0.5,2.4,0.7c1,0.5,1.7,1,2.7,1.7c0-0.2,0-0.5,0.2-0.7c1.4,0.2,3.1,0.2,4.6,1.2c0.2-0.5,0.7-1,1.2-1.4
					c0,0,0-0.2,0.2-0.2c1.2-0.2,1.9-1,2.2-2.2c0.2-0.5,0.2-1,0.2-1.2c1-0.5,1.7-1,2.7-1.4v-0.5c-0.7-1.2-0.7-1.4,0.5-1.9
					c0.2-0.2,0.2-0.5,0.5-0.5c0.5-0.2,1-0.5,1.2-0.7c0,0,0,0.2,0.2,0.2v-0.5c1.4-0.5,2.9-1,4.3-1.7c0.7-0.5,1.5-0.7,2.4-0.2
					c0.5,0.2,1,0,1.4-0.2c1.2-0.5,2.4-0.7,3.6-1.2c1-0.2,1.7-0.7,2.7-1.2c0,0,0.2-0.5,0-0.7c0-0.2-0.2-0.7-0.2-1
					c0.7-0.5,1.2-1,1.7-1c0.7-0.2,1.7-0.2,2.7-0.5c0.7-2.2,2.2-2.7,3.9-1.9l0.5-0.5c0.2,0.2,0.2,0.2,0.2,0.5c0.7-0.5,1.4-1,2.2-1.2
					c0.7-0.5,1.4-1,2.4-0.5c0-1.2,0.7-1.2,1.4-1c0.5,0,1.2-0.2,1.7-0.5c0.2,0,0.7-0.2,1,0c1,0.7,2.4,1,3.4,2.2
					c0.7,1,1.9,1.4,2.4,2.9c0.2,0.5,1.2,1,1.7,1.2c0,0,0.2,0,0.5,0.2c0.2,0.7,1,0.5,1.4,0.2c0.5,0,1-0.2,1.2,0.5
					c0,0.2,0.7,0.5,1,0.7c0.7,0.5,1.5,1,1.9,1.4c0.2,0.2,0.5,0.5,0.5,0.7c0,0.7,0.7,1.2,1.4,1.2c1,0.2,1.7,0.2,2.7,0.5
					c0.2,0,0.2,0.5,0.5,0.5c0.2,0.5,0.5,1.2,1.4,0.7c0.5-0.2,1.9,0.2,2.2,0.7c0.5,1.7,2.2,1.7,3.4,2.2c0.2,0,0.5,0,0.5,0.2
					c0.7,1,1.7,1.2,2.7,1.7c1,0.5,1.9,1.4,2.9,2.4l1.2,1.2c0.2,0.2,0.5,0.2,0.7,0.2c0.7,0,1.4-0.2,1.9,0.5c0,0,0.2,0.2,0.5,0.2
					c1.9-0.2,3.1,1,4.3,2.2c0.5,0.5,1.4,0.7,1.9,0.7c1.4,0.5,3.1,0.7,4.3,1.7c0.7,0.5,1.7,1.2,2.4,1.2c1.2,0,1.7,1,2.2,1.7
					c1.4,0.2,2.9,0.2,3.6,1.7c0,0.2,0.2,0.2,0.5,0.2c1,0.2,1.9,0.5,2.9,1c0.5,0.2,1,0.7,1.7,1.2c0.2,0,0.2,0.2,0.5,0.2
					c1.7,0,2.2,1.2,3.1,2.2c1.4,1.2,3.1,2.4,4.3,3.9c0.7,1,1.9,1.4,2.7,1.9l1.4,0.7c0.5,0.5,1,1,1.7,1.4c0.7,0.2,1,1.2,1.9,1
					c0.5,0,1,0.2,1.4,0.5c0.7,0.5,1,1,1.9,1c0.5,0,1,0.5,1.2,0.7c1.2,0.5,2.4,0.5,3.1-1l0.2-0.2c1,0.5,1-0.5,1.2-1
					c0.2-0.2,0.7-0.5,1-0.7c0.5-0.5,1-0.7,1.7-1.2c0.2-0.2,0.7-0.5,1-0.5c1.2,0,1.9-0.5,2.9-1.4c0.7-0.7,1.9-1.2,2.9-1.7
					c1-0.5,1.9-1,3.1-1.2c0.7-0.2,1.5-0.2,2.2-0.2h0.5c1-0.5,1.9-1.2,3.1-1.7h0.7c1.2,0.5,2.4,0.5,3.6-0.5c0.2-0.2,0.7-0.5,1-0.7
					c1.2,0.5,2.4,1.4,3.9,1.4c0.5,0,1.2-0.2,1.7-0.5c1,0,1.9,0,2.7-0.2c1-0.2,2.2,0,3.1-0.5c0.5-1.2,0.7-1.2,1.9-1
					c1.4,0.2,2.4,0,3.4-1.2c0.5-0.7,1.7-0.7,2.4-1.2c0.2,0,0.5-0.2,0.7-0.2c0.5-0.2,0.7-0.2,1.2-0.5c1.2-0.5,2.4-0.7,3.6-1.4
					c1.2-0.7,2.2-1.2,3.4-0.2h0.5c0.5-0.2,0.7-0.2,1.2-0.5c0-0.7,0-1.7,1-2.4c0.2-0.2,0.2-0.7,0.7-1c0.5-0.5,1.2-0.5,1.7-0.2
					c0.2,0.2,0.7,0,1,0c1.5-0.2,3.1-0.2,4.6-0.5c1.4-0.2,2.9-0.5,4.3-1c1-0.5,1.9-0.2,2.9-0.2c1.9,0.2,3.6,0.2,5.3-0.7l-0.5-0.5
					c0.5-0.2,1-0.2,1.7-0.2c0.5,0.7,1.2,0.2,1.7-0.2c0.7-0.7,1.4-0.5,2.4-0.5c1,0.2,2.2-0.2,3.4-0.5c0.2,0,0.5-0.5,0.5-0.7
					c0.5,0,1-0.2,1.7-0.2h1c1,0.5,1.9,0.5,2.9,0c0.2-0.2,0.7-0.2,1-0.2c0.7-0.2,1.4,0,1.9-0.7c0.2-0.2,0.7,0,1.2-0.2h7
					c1,0,2.2,0.2,3.1,0.5c1.2,0.2,2.2,0,3.1-0.2h1.7c0.7,0,1.4,0.2,2.2,0c0.5,0,0.7-0.5,1-1c0.5-0.7,1.2-1,2.2-1
					c0.7,0,1.4-0.2,2.2-0.5h0.5c1,1.4,2.4,0.5,3.6,0.7h0.5c1,0.5,2.2,1,3.1,1.2c1.2,0.2,2.2,1.4,3.1,1.4c1.7,0,3.1,1.2,4.6,1.4
					c1.2,0.2,2.4,0.7,3.6,1.2c0.5,0.2,1.2,0,1.7,0c1.4,0.2,2.9,0.2,4.3,0.5h0.2c1.7-0.2,3.4,0.2,5.1,0.2c0.2-43-1-86-2.4-128.9
					c-1.5-40.8-2.9-81.6-3.1-122.4c0-20.5,0.2-40.8,0.7-61.3c0.7-20.5,2.2-41,3.1-61.6c2.9-64.9,1.2-130.1,0.2-195.1
					c-0.7-0.2-1.2-0.5-1.7-0.7c-0.7-0.5-1.4-0.7-2.4-0.5h-1.4c-0.7,0-1.7,0-2.2,1c0,0-0.2,0.2-0.5,0.2h-1c-0.2-0.5,0.2-1.4-1-1.2
					c-0.5,0-1.2,0.2-1.7,0.2h-3.6c-0.2-0.5-0.5-1-1-1.7c-0.2-0.5-0.5-0.7-1.2-0.2c-0.5,0.2-0.7,0.2-1-0.2c-0.7-1.2-1.4-2.2-2.9-2.4
					c-0.2,0-0.5-0.5-0.7-0.7c-0.5-0.5-0.7-1-1.4-1c-0.2,0-0.7-0.5-0.7-0.7c-0.2-1-0.2-1.7-0.2-2.7c-0.2-1-0.7-1.9-1.4-2.4
					c-1.2-0.7-2.2-1.7-3.4-2.4c-0.2-0.2-0.7-0.5-1.2-0.5c-0.7-0.2-1.5-0.5-2.2-0.5c-0.7,0-1.7,0-2.4,0.5c-1.4,0.7-2.7-0.2-3.9-0.2
					c-1.2-0.2-2.4-0.7-3.4-1h-3.1c-2.7,0.5-4.8-1-7.5-1.2c-0.7,0-1.4-0.7-2.2-1.2c-0.5-0.5-1-0.5-1.7-0.2c-1,0.2-1.9,0-2.9,0.2
					c-1.4,0.5-2.7-0.7-4.1-0.7c-1.2,0.2-2.4,0.2-3.6,0.5l-2.9,0.7c-1.9,1-3.4-0.2-5.1-0.7c-1.2-0.2-1.9-0.7-2.9-1.4
					c-1-0.7-1.9,0-2.7,0c-0.7,0-1.2,0.7-1.7,1c-0.7,0.2-1.4,0.2-2.2,0.2s-1.7-0.2-2.4,0c-1.2,0.5-2.2,1.2-3.1,1.7
					c-0.2,0.2-0.5,0.5-0.7,0.5c-1.7,1-3.6,1.2-5.8,1.2c-1.2,0-2.4,0-3.6-0.2c-0.7,0-1.2-0.7-1.7-0.7c-1.7-0.2-3.1-0.2-4.8-0.2
					c-0.2,0-0.5,0.2-0.7,0.2c-1,0.5-1.9,1.2-2.9,1.7c-1.7,0.5-3.4,1-5.1,1.2h-0.7c-1.4-0.7-2.7,0-4.1,0.2c-1.4,0.5-2.9,1.2-4.3,1.7
					c-0.5,0.2-1,0-1.5-0.2c-0.7-0.2-1.2-0.2-1.7,0.2c-0.2,0.2-0.5,0.2-0.7,0.2c-0.7,0.2-1.4,0.2-1.9,0.5c-1,0.7-1.9,0.5-2.9,1
					c-1,0.5-1.9,0.5-2.7,1.2c-0.2,0.2-0.7,0.2-1.2,0.2c-1.2,0.2-2.2,1-2.9,1.9c-1,1-1.9,1.7-2.9,2.4c-0.2,0.2-1,0.2-1.2,0.2
					c-1,0-1.9-0.2-2.7-0.5c-0.5,0-0.7-0.2-1.2-0.2c-1.4,0.7-3.1,0.2-4.6,0.2c-0.2,0-0.7-0.2-1-0.5c-1-0.7-1.9-0.7-2.9-0.2
					c-0.7,0.2-1.4,0.2-1.9-0.2c-1-0.7-2.2-1.2-3.4-1.4c-1-0.2-1.9-0.7-2.9-1.2c-0.5-0.2-1,0-1.4,0s-0.7,0.2-1.2,0.2
					c-1.4,0.2-2.9,0.7-4.1,0.5c-1.7-0.5-3.4-0.2-4.8-1.2c-0.7-0.5-1,0-1.4,0c-0.2,0-0.5,0-1,0.2c-0.2,0.7-1.2,1.2-2.4,0.7
					c-0.7-0.2-1.2-0.2-1.9,0c-0.7,0.2-1.4,0.2-2.4,0.5h-0.2c-1.9,1.2-3.9,0.2-6,0.2h-1.2c-1.4,0.2-2.2-1-3.1-1.7
					c-1-0.7-1.9-1.7-2.9-2.2c-0.2-0.2-1,0-1.4,0h-2.2l-0.2-0.2c-1.7,0.5-2.7-0.5-3.9-1.4c-0.7-0.5-1.7-1-2.4-1.2
					c-1-0.5-2.2-0.7-2.7-1.9c-0.2-0.5-0.7-0.5-1-1c-0.2-0.5-0.5-1-0.5-1.2c0-0.5,0.2-1,0.5-1.4c0.2-0.7-0.2-1.4-1-1.9
					c-0.2-0.2-0.7-0.2-0.7-0.5c-0.5-1.4-1.7-1.9-2.7-3.1c-0.7-0.7-1.2-1.7-1.7-2.7c-0.5-0.5-0.7-1-1.4-1.5c-1.7-0.7-3.4-1.4-5.1-2.4
					c0,1.9-0.5,1.4-0.7,1c0-0.7-0.5-1-1.2-1c0,0-0.2,0-0.2-0.2c-0.2-1.4-1.4-1-2.2-1.2c-0.5-0.2-1-0.5-1.4-0.2
					c-1,0.2-1.7-0.5-2.7-0.7c-0.2,0-0.5,0-0.7,0.2c-0.5,0.5-1,0.5-1.7,0c-1-0.7-1.9-0.7-3.1-0.2c-0.5,0.2-1,0.2-1.5,0
					c-1-0.5-1.9-1.2-3.1-1.7c-0.2,0-0.5-0.2-0.7-0.2c-1.4,0.2-2.7-0.2-4.1,0.2c-0.7,0.2-1.7,0.2-2.2,1.2c-0.2,0.2-1,0.2-1.4,0.5
					c-1.2,0.2-2.4,0.5-3.6,0c-1-0.5-2.2-0.2-3.1-0.5c-0.7-0.2-1.2-0.7-1.7-1c-0.2-0.2-0.5-0.5-0.7-0.5c-1.5-0.5-2.7-1.4-3.4-2.7
					c-0.5-0.7-1.2-1.4-1.7-2.2c-1.7-0.5-1.4-2.4-2.4-3.4c-0.7-1-1.5-1.4-2.7-1.7h-0.2c-1.2-1-2.4-0.2-3.9-0.2
					c-0.5,0-1.2-0.5-1.7-0.7c-0.2-0.5-0.5-0.7-0.7-0.7c-1.4-0.2-2.7-1.2-3.9-2.4c-0.5,0.2-1,0.5-1.4,0.5c-0.5,0.2-1.2,0.2-1.9,0.2
					c-1-0.2-1.9,0-2.9,0.7c-0.5,0.2-0.7,0.5-1.2,0.7c-0.5,0.2-0.7,0.7-1.2,1c-0.2,0.2-0.7,0.2-1,0.5l-1.4,0.7c0,0-0.2,0.2-0.2,0
					c-1-0.5-1.7,0.5-2.4,1c-0.7,0.5-1.7,0.5-2.4,1h-0.2c-1.2,0.2-2.4,0.7-3.6,1c-0.5,0-0.7,0.2-1.2,0.5c-0.7,0.2-1.4,0.7-2.2,1
					c-0.5,0.2-1.2,0.5-1.7,0.7h-0.7c0,0-0.5,0-0.7,0.5c-1-0.5-2.2-0.7-3.1-1.2c-0.7-0.2-2.4,0.2-2.9,1c-0.2,0.2-0.5,0.5-0.7,0.5
					c-0.2,0-0.7-0.2-1-0.2c-0.2,0-0.5,0.2-1,0.2c0,0.2,0.2,0.5,0.2,0.7c-0.7,0.2-1.9,2.2-1.9,3.1c-1.2,0.5-2.7,0.7-3.1,2.2
					c0,0.2-0.2,0.2-0.2,0.5c-1.4,0.2-1.7,1.7-2.4,2.9v0.5c-0.2,0-0.5,0.2-0.7,0.2c-1,0.5-1.4,1.2-1.7,2.4c-0.2,1.2-0.2,2.2-0.5,3.4
					c-0.5-0.2-1.2,0.2-1.5-0.5h-0.5c-0.7,1-1.5,1.9-2.2,2.7c-0.7,0.5-1.4,0.7-2.4,1.2v0.5c-1-0.2-1.7-0.5-2.4-1
					c-0.2,0-0.5-0.2-0.5-0.2c-0.2,0-0.2-0.2-0.2-0.2c-0.2,0-0.2,0.2-0.2,0.5c0,1-0.5,0.7-1,0.5c-0.5-0.2-1-0.2-1.2,0.5
					c0,0.2-0.2,0.5-0.5,0.5c-0.7,0.2-1.4,0.5-1.7,1.2c-0.2,0.5-0.5,0.7-1,1.2h-3.6c-0.5,0-1,0-1.5,0.2c-0.5,0-1,0.2-1.7,0.5
					c-0.5,0.2-1.2,0.7-1.7,1c-0.2,0.2-0.5,0.2-0.7,0.2c-1.2,0-1.9,0.7-2.7,1.4c-0.7,0.5-1.2,1.2-1.9,1.7c-0.5,0.2-1,0.5-1.2,0.7
					c-0.5,0.2-0.7,0.7-1.2,0.7c-0.5,0.2-1.2,0.2-1.7,0c-0.7-0.5-1.4,0-1.9,0.2c-0.7,0.2-1.2,0.7-1.7,1c0.2,0.2,0.2,0.5,0.5,0.7h-0.7
					c0,0.2-0.2,0.5-0.2,0.7c-0.2,0-0.5-0.2-0.5-0.2c-0.7,0.5-1.4,1-2.2,1.2c-0.2,0-0.5,0.2-0.5,0.2c-1-0.2-2.2,0-2.9-0.7
					c-0.5-0.5-1.2-0.7-1.7-1.2c-0.7-0.5-1.7-0.2-2.4,1l-3.4-3.4c-0.2,0.2-0.7,0.5-1,0.7c-0.2,0-0.2,0.2-0.5,0.2
					c-1,0.2-1.9,0.5-3.1,0.7c-0.7,0.2-1.2,0.5-1.2,1.4c-1,0.5-1.9,0.2-2.7,1.2h-0.7c-1.4-0.7-2.7-0.5-3.6,0.7
					c-0.2,0.2-0.5,0.2-1,0.2c-1.2-0.2-2.2,0.5-3.1,1.2c-0.5,0.5-1,0.7-1.7,0.7c-1.2,0.2-2.2,0.2-3.4,0.2c0,0-0.2,0-0.2,0.2
					c-1,1.2-2.2,1.2-3.6,1.2c-1.4,0-2.9,0.2-4.1,1.5c-0.7,0.7-1.7,1.2-2.7,1.9c-0.2,0-0.5,0.2-0.5,0.2c-0.7,0-1.7-0.2-2.4-0.2
					C108.2-529.5,108.7-526.4,109-523.2z"/>
			</defs>
			<use xlink:href="#SVGID_00000062885607393368696500000005200352992279880101_"  style="overflow:visible;fill:#131313;"/>
			<clipPath id="SVGID_00000113313450170575333890000000750861502013757102_">
				<use xlink:href="#SVGID_00000062885607393368696500000005200352992279880101_"  style="overflow:visible;"/>
			</clipPath>
			<g style="clip-path:url(#SVGID_00000113313450170575333890000000750861502013757102_);">
				<path class="st10" d="M108-583.6h417.7V61.1H108V-583.6z"/>
			</g>
		</g>
	</g>
</g>
<g>
	<defs>
		<rect id="SVGID_00000175281257950216283830000005745752444545487247_" x="402.1" y="-289" width="485.9" height="350.2"/>
	</defs>
	<clipPath id="SVGID_00000178203161534562751200000008138170734846042503_">
		<use xlink:href="#SVGID_00000175281257950216283830000005745752444545487247_"  style="overflow:visible;"/>
	</clipPath>
	<g style="clip-path:url(#SVGID_00000178203161534562751200000008138170734846042503_);">
		<g>
			<defs>
				<path id="SVGID_00000049209966401783272150000015419790890650425736_" d="M403.3-620c2.2,23.9,2.8,47.9,3.1,72.1
					c1.4,87.3,0.8,174.5,0,261.8c-0.8,87.5-2,175.1-2,262.9c0,0.8,0,1.7-0.3,2.5c0.8,0.3,1.7,0.8,2.5,1.4c1.1,0.8,2,2.3,3.1,3.7
					c2.5,3.1,5.1,6.2,7.3,9.3c2.5,3.7,5.1,7,7.6,10.7c1.1,1.7,2.3,3.4,3.4,4.8c0.8,1.1,2.2,1.7,3.1,2.5c2.8,2.2,5.9,4.5,8.7,6.8
					c2.8,2.3,5.6,4.2,9,5.6c7.6,3.4,14.9,7,22.5,10.4c4.2,2,8.4,3.7,13,5.6c0.3,0.3,1.1,0,1.4,0h1.7l0.3,0.3c0.6-1.4,1.1-2.5,2-3.9
					c0.8-1.1,1.4-3.1,3.4-3.1c0,0,0.3,0,0.3-0.3c0.8-1.4,2.3-1.7,3.9-2s3.1-1.1,4.5-1.7c0.3,0,0.3-0.3,0.6-0.3
					c2,0.6,3.4-0.8,5.1-1.4h0.3c1.7,0,3.1-0.8,4.8-1.1c1.4-0.3,2.8-0.3,4.2-1.1s3.1-1.4,4.5-2s2.8-0.8,4.2-1.4h1.4
					c1.4,0,2.5,0,3.7-0.8h0.6c1.4,0,3.1,0.3,4.5,0.3h1.1c1.4-0.3,2,0.8,2.8,1.4c1.4,1.7,3.1,2,5.3,1.7c2-0.3,3.7-0.6,5.6-0.6
					c0.8,0,2,0.3,2.8,0.6c0.8,0.3,1.4,0.6,2.2,0.8l0.8,0.8c0,0,0.3,0.8,0.6,1.1c0.6,0.3,1.1,0.3,1.4,0.6l0.3,0.3
					c1.4-0.8,2,0.6,2.8,0.8c1.1,0.6,2,1.1,3.1,2c0-0.3,0-0.6,0.3-0.8c1.7,0.3,3.7,0.3,5.3,1.4c0.3-0.6,0.8-1.1,1.4-1.7
					c0,0,0-0.3,0.3-0.3c1.4-0.3,2.2-1.1,2.5-2.5c0.3-0.6,0.3-1.1,0.3-1.4c1.1-0.6,2-1.1,3.1-1.7v-0.6c-0.8-1.4-0.8-1.7,0.6-2.3
					c0.3-0.3,0.3-0.6,0.6-0.6c0.6-0.3,1.1-0.6,1.4-0.8c0,0,0,0.3,0.3,0.3v-0.6c1.7-0.6,3.4-1.1,5.1-2c0.8-0.6,1.7-0.8,2.8-0.3
					c0.6,0.3,1.1,0,1.7-0.3c1.4-0.6,2.8-0.8,4.2-1.4c1.1-0.3,2-0.8,3.1-1.4c0,0,0.3-0.6,0-0.8c0-0.3-0.3-0.8-0.3-1.1
					c0.8-0.6,1.4-1.1,2-1.1c0.8-0.3,2-0.3,3.1-0.6c0.8-2.5,2.5-3.1,4.5-2.2l0.6-0.6c0.3,0.3,0.3,0.3,0.3,0.6
					c0.8-0.6,1.7-1.1,2.5-1.4c0.8-0.6,1.7-1.1,2.8-0.6c0-1.4,0.8-1.4,1.7-1.1c0.6,0,1.4-0.3,2-0.6c0.3,0,0.8-0.3,1.1,0
					c1.1,0.8,2.8,1.1,3.9,2.5c0.8,1.1,2.3,1.7,2.8,3.4c0.3,0.6,1.4,1.1,2,1.4c0,0,0.3,0,0.6,0.3c0.3,0.8,1.1,0.6,1.7,0.3
					c0.6,0,1.1-0.3,1.4,0.6c0,0.3,0.8,0.6,1.1,0.8c0.8,0.6,1.7,1.1,2.2,1.7c0.3,0.3,0.6,0.6,0.6,0.8c0,0.8,0.8,1.4,1.7,1.4
					c1.1,0.3,2,0.3,3.1,0.6c0.3,0,0.3,0.6,0.6,0.6c0.3,0.6,0.6,1.4,1.7,0.8c0.6-0.3,2.2,0.3,2.5,0.8c0.6,2,2.5,2,3.9,2.5
					c0.3,0,0.6,0,0.6,0.3c0.8,1.1,2,1.4,3.1,2c1.1,0.6,2.3,1.7,3.4,2.8l1.4,1.4c0.3,0.3,0.6,0.3,0.8,0.3c0.8,0,1.7-0.3,2.3,0.6
					c0,0,0.3,0.3,0.6,0.3c2.2-0.3,3.7,1.1,5.1,2.5c0.6,0.6,1.7,0.8,2.2,0.8c1.7,0.6,3.7,0.8,5.1,2c0.8,0.6,2,1.4,2.8,1.4
					c1.4,0,2,1.1,2.5,2c1.7,0.3,3.4,0.3,4.2,2c0,0.3,0.3,0.3,0.6,0.3c1.1,0.3,2.2,0.6,3.4,1.1c0.6,0.3,1.1,0.8,2,1.4
					c0.3,0,0.3,0.3,0.6,0.3c2,0,2.5,1.4,3.7,2.5c1.7,1.4,3.7,2.8,5.1,4.5c0.8,1.1,2.3,1.7,3.1,2.2l1.7,0.8c0.6,0.6,1.1,1.1,2,1.7
					c0.8,0.3,1.1,1.4,2.3,1.1c0.6,0,1.1,0.3,1.7,0.6c0.8,0.6,1.1,1.1,2.2,1.1c0.6,0,1.1,0.6,1.4,0.8c1.4,0.6,2.8,0.6,3.7-1.1
					l0.3-0.3c1.1,0.6,1.1-0.6,1.4-1.1c0.3-0.3,0.8-0.6,1.1-0.8c0.6-0.6,1.1-0.8,2-1.4c0.3-0.3,0.8-0.6,1.1-0.6
					c1.4,0,2.3-0.6,3.4-1.7c0.8-0.8,2.2-1.4,3.4-2c1.1-0.6,2.2-1.1,3.7-1.4c0.8-0.3,1.7-0.3,2.5-0.3h0.6c1.1-0.6,2.2-1.4,3.7-2h0.8
					c1.4,0.6,2.8,0.6,4.2-0.6c0.3-0.3,0.8-0.6,1.1-0.8c1.4,0.6,2.8,1.7,4.5,1.7c0.6,0,1.4-0.3,2-0.6c1.1,0,2.2,0,3.1-0.3
					c1.1-0.3,2.5,0,3.7-0.6c0.6-1.4,0.8-1.4,2.2-1.1c1.7,0.3,2.8,0,3.9-1.4c0.6-0.8,2-0.8,2.8-1.4c0.3,0,0.6-0.3,0.8-0.3
					c0.6-0.3,0.8-0.3,1.4-0.6c1.4-0.6,2.8-0.8,4.2-1.7c1.4-0.8,2.5-1.4,3.9-0.3h0.6c0.6-0.3,0.8-0.3,1.4-0.6c0-0.8,0-2,1.1-2.8
					c0.3-0.3,0.3-0.8,0.8-1.1c0.6-0.6,1.4-0.6,2-0.3c0.3,0.3,0.8,0,1.1,0c1.7-0.3,3.7-0.3,5.3-0.6s3.4-0.6,5.1-1.1
					c1.1-0.6,2.2-0.3,3.4-0.3c2.2,0.3,4.2,0.3,6.2-0.8l-0.6-0.6c0.6-0.3,1.1-0.3,2-0.3c0.6,0.8,1.4,0.3,2-0.3
					c0.8-0.8,1.7-0.6,2.8-0.6c1.1,0.3,2.5-0.3,3.9-0.6c0.3,0,0.6-0.6,0.6-0.8c0.6,0,1.1-0.3,2-0.3h1.1c1.1,0.6,2.2,0.6,3.4,0
					c0.3-0.3,0.8-0.3,1.1-0.3c0.8-0.3,1.7,0,2.2-0.8c0.3-0.3,0.8,0,1.4-0.3h8.2c1.1,0,2.5,0.3,3.7,0.6c1.4,0.3,2.5,0,3.7-0.3h2
					c0.8,0,1.7,0.3,2.5,0c0.6,0,0.8-0.6,1.1-1.1c0.6-0.8,1.4-1.1,2.5-1.1c0.8,0,1.7-0.3,2.5-0.6h0.6c1.1,1.7,2.8,0.6,4.2,0.8h0.6
					c1.1,0.6,2.5,1.1,3.7,1.4c1.4,0.3,2.5,1.7,3.7,1.7c2,0,3.7,1.4,5.3,1.7c1.4,0.3,2.8,0.8,4.2,1.4c0.6,0.3,1.4,0,2,0
					c1.7,0.3,3.4,0.3,5.1,0.6h0.3c2-0.3,3.9,0.3,5.9,0.3c0.3-50.1-1.1-100.2-2.8-150.3c-1.7-47.6-3.4-95.1-3.7-142.7
					c0-23.9,0.3-47.6,0.8-71.5c0.8-23.9,2.5-47.9,3.7-71.8c3.4-75.7,1.4-151.7,0.3-227.5c-0.8-0.3-1.4-0.6-2-0.8
					c-0.8-0.6-1.7-0.8-2.8-0.6h-1.7c-0.8,0-2,0-2.5,1.1c0,0-0.3,0.3-0.6,0.3h-1.1c-0.3-0.6,0.3-1.7-1.1-1.4c-0.6,0-1.4,0.3-2,0.3
					h-4.2c-0.3-0.6-0.6-1.1-1.1-2c-0.3-0.6-0.6-0.8-1.4-0.3c-0.6,0.3-0.8,0.3-1.1-0.3c-0.8-1.4-1.7-2.5-3.4-2.8
					c-0.3,0-0.6-0.6-0.8-0.8c-0.6-0.6-0.8-1.1-1.7-1.1c-0.3,0-0.8-0.6-0.8-0.8c-0.3-1.1-0.3-2-0.3-3.1c-0.3-1.1-0.8-2.2-1.7-2.8
					c-1.4-0.8-2.5-2-3.9-2.8c-0.3-0.3-0.8-0.6-1.4-0.6c-0.8-0.3-1.7-0.6-2.5-0.6s-2,0-2.8,0.6c-1.7,0.8-3.1-0.3-4.5-0.3
					c-1.4-0.3-2.8-0.8-3.9-1.1h-3.7c-3.1,0.6-5.6-1.1-8.7-1.4c-0.8,0-1.7-0.8-2.5-1.4c-0.6-0.6-1.1-0.6-2-0.3
					c-1.1,0.3-2.2,0-3.4,0.3c-1.7,0.6-3.1-0.8-4.8-0.8c-1.4,0.3-2.8,0.3-4.2,0.6l-3.4,0.8c-2.3,1.1-3.9-0.3-5.9-0.8
					c-1.4-0.3-2.3-0.8-3.4-1.7s-2.2,0-3.1,0c-0.8,0-1.4,0.8-2,1.1c-0.8,0.3-1.7,0.3-2.5,0.3s-2-0.3-2.8,0c-1.4,0.6-2.5,1.4-3.7,2
					c-0.3,0.3-0.6,0.6-0.8,0.6c-2,1.1-4.2,1.4-6.8,1.4c-1.4,0-2.8,0-4.2-0.3c-0.8,0-1.4-0.8-2-0.8c-2-0.3-3.7-0.3-5.6-0.3
					c-0.3,0-0.6,0.3-0.8,0.3c-1.1,0.6-2.2,1.4-3.4,2c-2,0.6-3.9,1.1-5.9,1.4h-0.8c-1.7-0.8-3.1,0-4.8,0.3c-1.7,0.6-3.4,1.4-5.1,2
					c-0.6,0.3-1.1,0-1.7-0.3c-0.8-0.3-1.4-0.3-2,0.3c-0.3,0.3-0.6,0.3-0.8,0.3c-0.8,0.3-1.7,0.3-2.2,0.6c-1.1,0.8-2.3,0.6-3.4,1.1
					s-2.2,0.6-3.1,1.4c-0.3,0.3-0.8,0.3-1.4,0.3c-1.4,0.3-2.5,1.1-3.4,2.2c-1.1,1.1-2.3,2-3.4,2.8c-0.3,0.3-1.1,0.3-1.4,0.3
					c-1.1,0-2.3-0.3-3.1-0.6c-0.6,0-0.8-0.3-1.4-0.3c-1.7,0.8-3.7,0.3-5.3,0.3c-0.3,0-0.8-0.3-1.1-0.6c-1.1-0.8-2.2-0.8-3.4-0.3
					c-0.8,0.3-1.7,0.3-2.2-0.3c-1.1-0.8-2.5-1.4-3.9-1.7c-1.1-0.3-2.2-0.8-3.4-1.4c-0.6-0.3-1.1,0-1.7,0s-0.8,0.3-1.4,0.3
					c-1.7,0.3-3.4,0.8-4.8,0.6c-2-0.6-3.9-0.3-5.6-1.4c-0.8-0.6-1.1,0-1.7,0c-0.3,0-0.6,0-1.1,0.3c-0.3,0.8-1.4,1.4-2.8,0.8
					c-0.8-0.3-1.4-0.3-2.2,0s-1.7,0.3-2.8,0.6h-0.3c-2.2,1.4-4.5,0.3-7,0.3h-1.4c-1.7,0.3-2.5-1.1-3.7-2c-1.1-0.8-2.2-2-3.4-2.5
					c-0.3-0.3-1.1,0-1.7,0H649l-0.3-0.3c-2,0.6-3.1-0.6-4.5-1.7c-0.8-0.6-2-1.1-2.8-1.4c-1.1-0.6-2.5-0.8-3.1-2.3
					c-0.3-0.6-0.8-0.6-1.1-1.1s-0.6-1.1-0.6-1.4c0-0.6,0.3-1.1,0.6-1.7c0.3-0.8-0.3-1.7-1.1-2.3c-0.3-0.3-0.8-0.3-0.8-0.6
					c-0.6-1.7-2-2.2-3.1-3.7c-0.8-0.8-1.4-2-2-3.1c-0.6-0.6-0.8-1.1-1.7-1.7c-2-0.8-3.9-1.7-5.9-2.8c0,2.2-0.6,1.7-0.8,1.1
					c0-0.8-0.6-1.1-1.4-1.1c0,0-0.3,0-0.3-0.3c-0.3-1.7-1.7-1.1-2.5-1.4c-0.6-0.3-1.1-0.6-1.7-0.3c-1.1,0.3-2-0.6-3.1-0.8
					c-0.3,0-0.6,0-0.8,0.3c-0.6,0.6-1.1,0.6-2,0c-1.1-0.8-2.2-0.8-3.7-0.3c-0.6,0.3-1.1,0.3-1.7,0c-1.1-0.6-2.2-1.4-3.7-2
					c-0.3,0-0.6-0.3-0.8-0.3c-1.7,0.3-3.1-0.3-4.8,0.3c-0.8,0.3-2,0.3-2.5,1.4c-0.3,0.3-1.1,0.3-1.7,0.6c-1.4,0.3-2.8,0.6-4.2,0
					c-1.1-0.6-2.5-0.3-3.7-0.6c-0.8-0.3-1.4-0.8-2-1.1c-0.3-0.3-0.6-0.6-0.8-0.6c-1.7-0.6-3.1-1.7-3.9-3.1c-0.6-0.8-1.4-1.7-2-2.5
					c-2-0.6-1.7-2.8-2.8-3.9c-0.8-1.1-1.7-1.7-3.1-2h-0.3c-1.4-1.1-2.8-0.3-4.5-0.3c-0.6,0-1.4-0.6-2-0.8c-0.3-0.6-0.6-0.8-0.8-0.8
					c-1.7-0.3-3.1-1.4-4.5-2.8c-0.6,0.3-1.1,0.6-1.7,0.6c-0.6,0.3-1.4,0.3-2.3,0.3c-1.1-0.3-2.2,0-3.4,0.8c-0.6,0.3-0.8,0.6-1.4,0.8
					c-0.6,0.3-0.8,0.8-1.4,1.1c-0.3,0.3-0.8,0.3-1.1,0.6l-1.7,0.8c0,0-0.3,0.3-0.3,0c-1.1-0.6-2,0.6-2.8,1.1c-0.8,0.6-2,0.6-2.8,1.1
					h-0.3c-1.4,0.3-2.8,0.8-4.2,1.1c-0.6,0-0.8,0.3-1.4,0.6c-0.8,0.3-1.7,0.8-2.5,1.1c-0.6,0.3-1.4,0.6-2,0.8h-0.8
					c0,0-0.6,0-0.8,0.6c-1.1-0.6-2.5-0.8-3.7-1.4c-0.8-0.3-2.8,0.3-3.4,1.1c-0.3,0.3-0.6,0.6-0.8,0.6s-0.8-0.3-1.1-0.3
					s-0.6,0.3-1.1,0.3c0,0.3,0.3,0.6,0.3,0.8c-0.8,0.3-2.2,2.5-2.2,3.7c-1.4,0.6-3.1,0.8-3.7,2.5c0,0.3-0.3,0.3-0.3,0.6
					c-1.7,0.3-2,2-2.8,3.4v0.6c-0.3,0-0.6,0.3-0.8,0.3c-1.1,0.6-1.7,1.4-2,2.8s-0.3,2.5-0.6,3.9c-0.6-0.3-1.4,0.3-1.7-0.6h-0.6
					c-0.8,1.1-1.7,2.2-2.5,3.1c-0.8,0.6-1.7,0.8-2.8,1.4v0.6c-1.1-0.3-2-0.6-2.8-1.1c-0.3,0-0.6-0.3-0.6-0.3c-0.3,0-0.3-0.3-0.3-0.3
					c-0.3,0-0.3,0.3-0.3,0.6c0,1.1-0.6,0.8-1.1,0.6s-1.1-0.3-1.4,0.6c0,0.3-0.3,0.6-0.6,0.6c-0.8,0.3-1.7,0.6-2,1.4
					c-0.3,0.6-0.6,0.8-1.1,1.4h-4.2c-0.6,0-1.1,0-1.7,0.3c-0.6,0-1.1,0.3-2,0.6c-0.6,0.3-1.4,0.8-2,1.1c-0.3,0.3-0.6,0.3-0.8,0.3
					c-1.4,0-2.2,0.8-3.1,1.7c-0.8,0.6-1.4,1.4-2.2,2c-0.6,0.3-1.1,0.6-1.4,0.8c-0.6,0.3-0.8,0.8-1.4,0.8c-0.6,0.3-1.4,0.3-2,0
					c-0.8-0.6-1.7,0-2.2,0.3c-0.8,0.3-1.4,0.8-2,1.1c0.3,0.3,0.3,0.6,0.6,0.8h-0.8c0,0.3-0.3,0.6-0.3,0.8c-0.3,0-0.6-0.3-0.6-0.3
					c-0.8,0.6-1.7,1.1-2.5,1.4c-0.3,0-0.6,0.3-0.6,0.3c-1.1-0.3-2.5,0-3.4-0.8c-0.6-0.6-1.4-0.8-2-1.4c-0.8-0.6-2-0.3-2.8,1.1
					l-3.9-3.9c-0.3,0.3-0.8,0.6-1.1,0.8c-0.3,0-0.3,0.3-0.6,0.3c-1.1,0.3-2.2,0.6-3.7,0.8c-0.8,0.3-1.4,0.6-1.4,1.7
					c-1.1,0.6-2.2,0.3-3.1,1.4h-0.8c-1.7-0.8-3.1-0.6-4.2,0.8c-0.3,0.3-0.6,0.3-1.1,0.3c-1.4-0.3-2.5,0.6-3.7,1.4
					c-0.6,0.6-1.1,0.8-2,0.8c-1.4,0.3-2.5,0.3-3.9,0.3c0,0-0.3,0-0.3,0.3c-1.1,1.4-2.5,1.4-4.2,1.4c-1.7,0-3.4,0.3-4.8,1.7
					c-0.8,0.8-2,1.4-3.1,2.3c-0.3,0-0.6,0.3-0.6,0.3c-0.8,0-2-0.3-2.8-0.3C402.4-627.3,403-623.7,403.3-620z"/>
			</defs>
			<use xlink:href="#SVGID_00000049209966401783272150000015419790890650425736_"  style="overflow:visible;fill:#131313;"/>
			<clipPath id="SVGID_00000122689987416891886860000007011356667404602013_">
				<use xlink:href="#SVGID_00000049209966401783272150000015419790890650425736_"  style="overflow:visible;"/>
			</clipPath>
			<g style="clip-path:url(#SVGID_00000122689987416891886860000007011356667404602013_);">
				<path class="st10" d="M402.1-690.4h487V61.2h-487V-690.4z"/>
			</g>
		</g>
	</g>
</g>
<g>
	<defs>
		<rect id="SVGID_00000036953159309521563560000007864205444277247105_" x="620" y="-289" width="460" height="362.6"/>
	</defs>
	<clipPath id="SVGID_00000140004053130792652400000007264474517393300883_">
		<use xlink:href="#SVGID_00000036953159309521563560000007864205444277247105_"  style="overflow:visible;"/>
	</clipPath>
	<g style="clip-path:url(#SVGID_00000140004053130792652400000007264474517393300883_);">
		<g>
			<defs>
				<path id="SVGID_00000178169273196355464820000009518137530437633970_" d="M621.1-607.6c2.3,23.9,2.8,47.9,3.1,72.1
					c1.4,87.3,0.8,174.5,0,261.8c-0.8,87.5-2,175.1-2,262.9c0,0.8,0,1.7-0.3,2.5c0.8,0.3,1.7,0.8,2.5,1.4c1.1,0.8,2,2.2,3.1,3.7
					c2.5,3.1,5.1,6.2,7.3,9.3c2.5,3.7,5.1,7,7.6,10.7c1.1,1.7,2.2,3.4,3.4,4.8c0.8,1.1,2.3,1.7,3.1,2.5c2.8,2.3,5.9,4.5,8.7,6.8
					c2.8,2.2,5.6,4.2,9,5.6c7.6,3.4,14.9,7,22.5,10.4c4.2,2,8.4,3.7,12.9,5.6c0.3,0.3,1.1,0,1.4,0h1.7l0.3,0.3
					c0.6-1.4,1.1-2.5,2-3.9c0.8-1.1,1.4-3.1,3.4-3.1c0,0,0.3,0,0.3-0.3c0.8-1.4,2.2-1.7,3.9-2c1.7-0.3,3.1-1.1,4.5-1.7
					c0.3,0,0.3-0.3,0.6-0.3c2,0.6,3.4-0.8,5.1-1.4h0.3c1.7,0,3.1-0.8,4.8-1.1c1.4-0.3,2.8-0.3,4.2-1.1s3.1-1.4,4.5-2
					c1.4-0.6,2.8-0.8,4.2-1.4h1.4c1.4,0,2.5,0,3.7-0.8h0.6c1.4,0,3.1,0.3,4.5,0.3h1.1c1.4-0.3,2,0.8,2.8,1.4c1.4,1.7,3.1,2,5.3,1.7
					c2-0.3,3.7-0.6,5.6-0.6c0.8,0,2,0.3,2.8,0.6s1.4,0.6,2.2,0.8l0.8,0.8c0,0,0.3,0.8,0.6,1.1c0.6,0.3,1.1,0.3,1.4,0.6l0.3,0.3
					c1.4-0.8,2,0.6,2.8,0.8c1.1,0.6,2,1.1,3.1,2c0-0.3,0-0.6,0.3-0.8c1.7,0.3,3.7,0.3,5.3,1.4c0.3-0.6,0.8-1.1,1.4-1.7
					c0,0,0-0.3,0.3-0.3c1.4-0.3,2.3-1.1,2.5-2.5c0.3-0.6,0.3-1.1,0.3-1.4c1.1-0.6,2-1.1,3.1-1.7v-0.6c-0.8-1.4-0.8-1.7,0.6-2.2
					c0.3-0.3,0.3-0.6,0.6-0.6c0.6-0.3,1.1-0.6,1.4-0.8c0,0,0,0.3,0.3,0.3V32c1.7-0.6,3.4-1.1,5.1-2c0.8-0.6,1.7-0.8,2.8-0.3
					c0.6,0.3,1.1,0,1.7-0.3c1.4-0.6,2.8-0.8,4.2-1.4c1.1-0.3,2-0.8,3.1-1.4c0,0,0.3-0.6,0-0.8c0-0.3-0.3-0.8-0.3-1.1
					c0.8-0.6,1.4-1.1,2-1.1c0.8-0.3,2-0.3,3.1-0.6c0.8-2.5,2.5-3.1,4.5-2.2l0.6-0.6c0.3,0.3,0.3,0.3,0.3,0.6
					c0.8-0.6,1.7-1.1,2.5-1.4c0.8-0.6,1.7-1.1,2.8-0.6c0-1.4,0.8-1.4,1.7-1.1c0.6,0,1.4-0.3,2-0.6c0.3,0,0.8-0.3,1.1,0
					c1.1,0.8,2.8,1.1,3.9,2.5c0.8,1.1,2.2,1.7,2.8,3.4c0.3,0.6,1.4,1.1,2,1.4c0,0,0.3,0,0.6,0.3c0.3,0.8,1.1,0.6,1.7,0.3
					c0.6,0,1.1-0.3,1.4,0.6c0,0.3,0.8,0.6,1.1,0.8c0.8,0.6,1.7,1.1,2.2,1.7c0.3,0.3,0.6,0.6,0.6,0.8c0,0.8,0.8,1.4,1.7,1.4
					c1.1,0.3,2,0.3,3.1,0.6c0.3,0,0.3,0.6,0.6,0.6c0.3,0.6,0.6,1.4,1.7,0.8c0.6-0.3,2.3,0.3,2.5,0.8c0.6,2,2.5,2,3.9,2.5
					c0.3,0,0.6,0,0.6,0.3c0.8,1.1,2,1.4,3.1,2s2.2,1.7,3.4,2.8l1.4,1.4c0.3,0.3,0.6,0.3,0.8,0.3c0.8,0,1.7-0.3,2.2,0.6
					c0,0,0.3,0.3,0.6,0.3c2.3-0.3,3.7,1.1,5.1,2.5c0.6,0.6,1.7,0.8,2.3,0.8c1.7,0.6,3.7,0.8,5.1,2c0.8,0.6,2,1.4,2.8,1.4
					c1.4,0,2,1.1,2.5,2c1.7,0.3,3.4,0.3,4.2,2c0,0.3,0.3,0.3,0.6,0.3c1.1,0.3,2.3,0.6,3.4,1.1c0.6,0.3,1.1,0.8,2,1.4
					c0.3,0,0.3,0.3,0.6,0.3c2,0,2.5,1.4,3.7,2.5c1.7,1.4,3.7,2.8,5.1,4.5c0.8,1.1,2.2,1.7,3.1,2.3l1.7,0.8c0.6,0.6,1.1,1.1,2,1.7
					c0.8,0.3,1.1,1.4,2.2,1.1c0.6,0,1.1,0.3,1.7,0.6c0.8,0.6,1.1,1.1,2.2,1.1c0.6,0,1.1,0.6,1.4,0.8c1.4,0.6,2.8,0.6,3.7-1.1
					l0.3-0.3c1.1,0.6,1.1-0.6,1.4-1.1c0.3-0.3,0.8-0.6,1.1-0.8c0.6-0.6,1.1-0.8,2-1.4c0.3-0.3,0.8-0.6,1.1-0.6
					c1.4,0,2.2-0.6,3.4-1.7c0.8-0.8,2.2-1.4,3.4-2c1.1-0.6,2.3-1.1,3.7-1.4c0.8-0.3,1.7-0.3,2.5-0.3h0.6c1.1-0.6,2.3-1.4,3.7-2h0.8
					c1.4,0.6,2.8,0.6,4.2-0.6c0.3-0.3,0.8-0.6,1.1-0.8c1.4,0.6,2.8,1.7,4.5,1.7c0.6,0,1.4-0.3,2-0.6c1.1,0,2.3,0,3.1-0.3
					c1.1-0.3,2.5,0,3.7-0.6c0.6-1.4,0.8-1.4,2.3-1.1c1.7,0.3,2.8,0,3.9-1.4c0.6-0.8,2-0.8,2.8-1.4c0.3,0,0.6-0.3,0.8-0.3
					c0.6-0.3,0.8-0.3,1.4-0.6c1.4-0.6,2.8-0.8,4.2-1.7s2.5-1.4,3.9-0.3h0.6c0.6-0.3,0.8-0.3,1.4-0.6c0-0.8,0-2,1.1-2.8
					c0.3-0.3,0.3-0.8,0.8-1.1c0.6-0.6,1.4-0.6,2-0.3c0.3,0.3,0.8,0,1.1,0c1.7-0.3,3.7-0.3,5.3-0.6c1.7-0.3,3.4-0.6,5.1-1.1
					c1.1-0.6,2.2-0.3,3.4-0.3c2.3,0.3,4.2,0.3,6.2-0.8l-0.6-0.6c0.6-0.3,1.1-0.3,2-0.3c0.6,0.8,1.4,0.3,2-0.3
					c0.8-0.8,1.7-0.6,2.8-0.6c1.1,0.3,2.5-0.3,3.9-0.6c0.3,0,0.6-0.6,0.6-0.8c0.6,0,1.1-0.3,2-0.3h1.1c1.1,0.6,2.2,0.6,3.4,0
					c0.3-0.3,0.8-0.3,1.1-0.3c0.8-0.3,1.7,0,2.3-0.8c0.3-0.3,0.8,0,1.4-0.3h8.2c1.1,0,2.5,0.3,3.7,0.6c1.4,0.3,2.5,0,3.7-0.3h2
					c0.8,0,1.7,0.3,2.5,0c0.6,0,0.8-0.6,1.1-1.1c0.6-0.8,1.4-1.1,2.5-1.1c0.8,0,1.7-0.3,2.5-0.6h0.6c1.1,1.7,2.8,0.6,4.2,0.8h0.6
					c1.1,0.6,2.5,1.1,3.7,1.4c1.4,0.3,2.5,1.7,3.7,1.7c2,0,3.7,1.4,5.3,1.7c1.4,0.3,2.8,0.8,4.2,1.4c0.6,0.3,1.4,0,2,0
					c1.7,0.3,3.4,0.3,5.1,0.6h0.3c2-0.3,3.9,0.3,5.9,0.3c0.3-50.1-1.1-100.2-2.8-150.3c-1.7-47.6-3.4-95.1-3.7-142.7
					c0-23.9,0.3-47.6,0.8-71.5c0.8-23.9,2.5-47.9,3.7-71.8c3.4-75.7,1.4-151.7,0.3-227.5c-0.8-0.3-1.4-0.6-2-0.8
					c-0.8-0.6-1.7-0.8-2.8-0.6h-1.7c-0.8,0-2,0-2.5,1.1c0,0-0.3,0.3-0.6,0.3h-1.1c-0.3-0.6,0.3-1.7-1.1-1.4c-0.6,0-1.4,0.3-2,0.3
					h-4.2c-0.3-0.6-0.6-1.1-1.1-2c-0.3-0.6-0.6-0.8-1.4-0.3c-0.6,0.3-0.8,0.3-1.1-0.3c-0.8-1.4-1.7-2.5-3.4-2.8
					c-0.3,0-0.6-0.6-0.8-0.8c-0.6-0.6-0.8-1.1-1.7-1.1c-0.3,0-0.8-0.6-0.8-0.8c-0.3-1.1-0.3-2-0.3-3.1c-0.3-1.1-0.8-2.2-1.7-2.8
					c-1.4-0.8-2.5-2-3.9-2.8c-0.3-0.3-0.8-0.6-1.4-0.6c-0.8-0.3-1.7-0.6-2.5-0.6s-2,0-2.8,0.6c-1.7,0.8-3.1-0.3-4.5-0.3
					c-1.4-0.3-2.8-0.8-3.9-1.1h-3.7c-3.1,0.6-5.6-1.1-8.7-1.4c-0.8,0-1.7-0.8-2.5-1.4c-0.6-0.6-1.1-0.6-2-0.3
					c-1.1,0.3-2.2,0-3.4,0.3c-1.7,0.6-3.1-0.8-4.8-0.8c-1.4,0.3-2.8,0.3-4.2,0.6l-3.4,0.8c-2.2,1.1-3.9-0.3-5.9-0.8
					c-1.4-0.3-2.2-0.8-3.4-1.7s-2.3,0-3.1,0s-1.4,0.8-2,1.1c-0.8,0.3-1.7,0.3-2.5,0.3c-0.8,0-2-0.3-2.8,0c-1.4,0.6-2.5,1.4-3.7,2
					c-0.3,0.3-0.6,0.6-0.8,0.6c-2,1.1-4.2,1.4-6.8,1.4c-1.4,0-2.8,0-4.2-0.3c-0.8,0-1.4-0.8-2-0.8c-2-0.3-3.7-0.3-5.6-0.3
					c-0.3,0-0.6,0.3-0.8,0.3c-1.1,0.6-2.3,1.4-3.4,2c-2,0.6-3.9,1.1-5.9,1.4h-0.8c-1.7-0.8-3.1,0-4.8,0.3c-1.7,0.6-3.4,1.4-5.1,2
					c-0.6,0.3-1.1,0-1.7-0.3c-0.8-0.3-1.4-0.3-2,0.3c-0.3,0.3-0.6,0.3-0.8,0.3c-0.8,0.3-1.7,0.3-2.3,0.6c-1.1,0.8-2.2,0.6-3.4,1.1
					c-1.1,0.6-2.3,0.6-3.1,1.4c-0.3,0.3-0.8,0.3-1.4,0.3c-1.4,0.3-2.5,1.1-3.4,2.3c-1.1,1.1-2.2,2-3.4,2.8c-0.3,0.3-1.1,0.3-1.4,0.3
					c-1.1,0-2.2-0.3-3.1-0.6c-0.6,0-0.8-0.3-1.4-0.3c-1.7,0.8-3.7,0.3-5.3,0.3c-0.3,0-0.8-0.3-1.1-0.6c-1.1-0.8-2.2-0.8-3.4-0.3
					c-0.8,0.3-1.7,0.3-2.2-0.3c-1.1-0.8-2.5-1.4-3.9-1.7c-1.1-0.3-2.3-0.8-3.4-1.4c-0.6-0.3-1.1,0-1.7,0s-0.8,0.3-1.4,0.3
					c-1.7,0.3-3.4,0.8-4.8,0.6c-2-0.6-3.9-0.3-5.6-1.4c-0.8-0.6-1.1,0-1.7,0c-0.3,0-0.6,0-1.1,0.3c-0.3,0.8-1.4,1.4-2.8,0.8
					c-0.8-0.3-1.4-0.3-2.2,0c-0.8,0.3-1.7,0.3-2.8,0.6h-0.3c-2.2,1.4-4.5,0.3-7,0.3h-1.4c-1.7,0.3-2.5-1.1-3.7-2
					c-1.1-0.8-2.2-2-3.4-2.5c-0.3-0.3-1.1,0-1.7,0h-2.5l-0.3-0.3c-2,0.6-3.1-0.6-4.5-1.7c-0.8-0.6-2-1.1-2.8-1.4
					c-1.1-0.6-2.5-0.8-3.1-2.2c-0.3-0.6-0.8-0.6-1.1-1.1s-0.6-1.1-0.6-1.4c0-0.6,0.3-1.1,0.6-1.7c0.3-0.8-0.3-1.7-1.1-2.2
					c-0.3-0.3-0.8-0.3-0.8-0.6c-0.6-1.7-2-2.3-3.1-3.7c-0.8-0.8-1.4-2-2-3.1c-0.6-0.6-0.8-1.1-1.7-1.7c-2-0.8-3.9-1.7-5.9-2.8
					c0,2.2-0.6,1.7-0.8,1.1c0-0.8-0.6-1.1-1.4-1.1c0,0-0.3,0-0.3-0.3c-0.3-1.7-1.7-1.1-2.5-1.4c-0.6-0.3-1.1-0.6-1.7-0.3
					c-1.1,0.3-2-0.6-3.1-0.8c-0.3,0-0.6,0-0.8,0.3c-0.6,0.6-1.1,0.6-2,0c-1.1-0.8-2.2-0.8-3.7-0.3c-0.6,0.3-1.1,0.3-1.7,0
					c-1.1-0.6-2.2-1.4-3.7-2c-0.3,0-0.6-0.3-0.8-0.3c-1.7,0.3-3.1-0.3-4.8,0.3c-0.8,0.3-2,0.3-2.5,1.4c-0.3,0.3-1.1,0.3-1.7,0.6
					c-1.4,0.3-2.8,0.6-4.2,0c-1.1-0.6-2.5-0.3-3.7-0.6c-0.8-0.3-1.4-0.8-2-1.1c-0.3-0.3-0.6-0.6-0.8-0.6c-1.7-0.6-3.1-1.7-3.9-3.1
					c-0.6-0.8-1.4-1.7-2-2.5c-2-0.6-1.7-2.8-2.8-3.9c-0.8-1.1-1.7-1.7-3.1-2H786c-1.4-1.1-2.8-0.3-4.5-0.3c-0.6,0-1.4-0.6-2-0.8
					c-0.3-0.6-0.6-0.8-0.8-0.8c-1.7-0.3-3.1-1.4-4.5-2.8c-0.6,0.3-1.1,0.6-1.7,0.6c-0.6,0.3-1.4,0.3-2.2,0.3c-1.1-0.3-2.2,0-3.4,0.8
					c-0.6,0.3-0.8,0.6-1.4,0.8s-0.8,0.8-1.4,1.1c-0.3,0.3-0.8,0.3-1.1,0.6l-1.7,0.8c0,0-0.3,0.3-0.3,0c-1.1-0.6-2,0.6-2.8,1.1
					s-2,0.6-2.8,1.1h-0.3c-1.4,0.3-2.8,0.8-4.2,1.1c-0.6,0-0.8,0.3-1.4,0.6c-0.8,0.3-1.7,0.8-2.5,1.1c-0.6,0.3-1.4,0.6-2,0.8h-0.8
					c0,0-0.6,0-0.8,0.6c-1.1-0.6-2.5-0.8-3.7-1.4c-0.8-0.3-2.8,0.3-3.4,1.1c-0.3,0.3-0.6,0.6-0.8,0.6s-0.8-0.3-1.1-0.3
					s-0.6,0.3-1.1,0.3c0,0.3,0.3,0.6,0.3,0.8c-0.8,0.3-2.3,2.5-2.3,3.7c-1.4,0.6-3.1,0.8-3.7,2.5c0,0.3-0.3,0.3-0.3,0.6
					c-1.7,0.3-2,2-2.8,3.4v0.6c-0.3,0-0.6,0.3-0.8,0.3c-1.1,0.6-1.7,1.4-2,2.8s-0.3,2.5-0.6,3.9c-0.6-0.3-1.4,0.3-1.7-0.6h-0.6
					c-0.8,1.1-1.7,2.3-2.5,3.1c-0.8,0.6-1.7,0.8-2.8,1.4v0.6c-1.1-0.3-2-0.6-2.8-1.1c-0.3,0-0.6-0.3-0.6-0.3c-0.3,0-0.3-0.3-0.3-0.3
					c-0.3,0-0.3,0.3-0.3,0.6c0,1.1-0.6,0.8-1.1,0.6s-1.1-0.3-1.4,0.6c0,0.3-0.3,0.6-0.6,0.6c-0.8,0.3-1.7,0.6-2,1.4
					c-0.3,0.6-0.6,0.8-1.1,1.4h-4.2c-0.6,0-1.1,0-1.7,0.3c-0.6,0-1.1,0.3-2,0.6c-0.6,0.3-1.4,0.8-2,1.1c-0.3,0.3-0.6,0.3-0.8,0.3
					c-1.4,0-2.3,0.8-3.1,1.7c-0.8,0.6-1.4,1.4-2.2,2c-0.6,0.3-1.1,0.6-1.4,0.8c-0.6,0.3-0.8,0.8-1.4,0.8c-0.6,0.3-1.4,0.3-2,0
					c-0.8-0.6-1.7,0-2.3,0.3c-0.8,0.3-1.4,0.8-2,1.1c0.3,0.3,0.3,0.6,0.6,0.8h-0.8c0,0.3-0.3,0.6-0.3,0.8c-0.3,0-0.6-0.3-0.6-0.3
					c-0.8,0.6-1.7,1.1-2.5,1.4c-0.3,0-0.6,0.3-0.6,0.3c-1.1-0.3-2.5,0-3.4-0.8c-0.6-0.6-1.4-0.8-2-1.4c-0.8-0.6-2-0.3-2.8,1.1
					l-3.9-3.9c-0.3,0.3-0.8,0.6-1.1,0.8c-0.3,0-0.3,0.3-0.6,0.3c-1.1,0.3-2.2,0.6-3.7,0.8c-0.8,0.3-1.4,0.6-1.4,1.7
					c-1.1,0.6-2.2,0.3-3.1,1.4h-0.8c-1.7-0.8-3.1-0.6-4.2,0.8c-0.3,0.3-0.6,0.3-1.1,0.3c-1.4-0.3-2.5,0.6-3.7,1.4
					c-0.6,0.6-1.1,0.8-2,0.8c-1.4,0.3-2.5,0.3-3.9,0.3c0,0-0.3,0-0.3,0.3c-1.1,1.4-2.5,1.4-4.2,1.4s-3.4,0.3-4.8,1.7
					c-0.8,0.8-2,1.4-3.1,2.3c-0.3,0-0.6,0.3-0.6,0.3c-0.8,0-2-0.3-2.8-0.3C620.2-614.9,620.8-611.3,621.1-607.6z"/>
			</defs>
			<use xlink:href="#SVGID_00000178169273196355464820000009518137530437633970_"  style="overflow:visible;fill:#131313;"/>
			<clipPath id="SVGID_00000041282857157122450870000007104457243772688532_">
				<use xlink:href="#SVGID_00000178169273196355464820000009518137530437633970_"  style="overflow:visible;"/>
			</clipPath>
			<g style="clip-path:url(#SVGID_00000041282857157122450870000007104457243772688532_);">
				<path class="st10" d="M620-678h487V73.6H620V-678z"/>
			</g>
		</g>
	</g>
</g>
</svg>
