<?xml version="1.0" encoding="utf-8"?>
<!-- Generator: Adobe Illustrator 27.0.1, SVG Export Plug-In . SVG Version: 6.00 Build 0)  -->
<svg version="1.1" id="Capa_1" xmlns="http://www.w3.org/2000/svg" xmlns:xlink="http://www.w3.org/1999/xlink" x="0px" y="0px"
	 viewBox="0 0 957 625" style="enable-background:new 0 0 957 625;" xml:space="preserve">
<style type="text/css">
	.st0{fill:#D8FF00;}
	.st1{fill:#FFFFFF;}
</style>
<image style="overflow:visible;enable-background:new    ;" width="473" height="583" xlink:href="47FFD377.png"  transform="matrix(1 0 0 1 11.06 21.59)">
</image>
<polygon class="st0" points="130.2,341.8 114.4,331.8 82.8,311.8 96.5,303.2 80.8,293.2 62.6,304.6 62.5,318.9 98.6,341.7 
	114.4,351.7 432.6,553.1 432.6,533.2 "/>
<polygon class="st0" points="132.2,261.1 147.9,271.1 432.6,93.2 432.6,73.4 "/>
<image style="overflow:visible;enable-background:new    ;" width="475" height="585" xlink:href="47FFD37C.png"  transform="matrix(1 0 0 1 468.06 21.59)">
</image>
<polygon class="st0" points="806.1,272.2 821.8,262.3 519.6,73.4 519.6,93.2 "/>
<polygon class="st0" points="891.5,305.8 873.2,294.4 857.5,304.4 871.2,312.9 839.6,333 823.8,342.9 519.6,535.5 519.6,555.4 
	839.6,352.8 855.4,342.9 891.5,320 "/>
<polyline class="st1" points="432.6,612.7 432.6,473.7 82.8,252.2 415.6,44.3 415.6,143.6 179.6,291.1 195.3,301.1 432.6,152.8 
	432.6,13.8 62.6,245.1 62.5,259.3 415.6,482.8 415.6,582.1 82.8,371.4 96.6,362.8 80.8,352.8 62.6,364.2 62.5,378.5 432.6,612.7 "/>
<polygon class="st1" points="891.5,365.4 873.2,354 857.4,363.9 871.2,372.5 536.4,584.5 536.4,485.3 891.5,260.5 891.5,246.2 
	519.6,13.8 519.6,152.8 519.6,152.8 758.7,302.2 774.5,292.3 536.4,143.5 536.4,44.2 871.2,253.4 519.6,473.8 519.6,612.9 
	891.5,379.6 "/>
</svg>
