<?xml version="1.0" encoding="utf-8"?>
<!-- Generator: Adobe Illustrator 27.0.1, SVG Export Plug-In . SVG Version: 6.00 Build 0)  -->
<svg version="1.1" id="Capa_1" xmlns="http://www.w3.org/2000/svg" xmlns:xlink="http://www.w3.org/1999/xlink" x="0px" y="0px"
	 viewBox="0 0 409.8 406.9" style="enable-background:new 0 0 409.8 406.9;" xml:space="preserve">
<style type="text/css">
	.st0{fill:#D8FF00;}
</style>
<path class="st0" d="M205,6.9C94.7,6.9,5,96.7,5,207.2c0,100.3,73.9,183.4,170.1,197.8l10.4,1.6V248.8h-47.2v-32h47.2v-42.6
	c0-26.2,6.3-43.5,16.7-54.3c10.4-10.8,25.8-16.3,47.1-16.3c17.1,0,23.7,1,30.1,1.8v26.2h-22.2c-12.6,0-23,7.1-28.4,16.5
	c-5.4,9.4-7,20.6-7,32v36.6h55.7l-5,32h-50.7v158.1l10.3-1.4c97.6-13.3,172.9-97,172.9-198.3C405,96.7,315.3,6.9,205,6.9z M205,25.1
	c100.5,0,181.8,81.4,181.8,182.1c0,88.6-63.3,161.5-146.9,177.9V267h48.1l10.6-68.5h-58.7v-18.4c0-9.4,1.7-17.9,4.6-23
	c2.9-5.1,5.7-7.3,12.6-7.3h40.4V89l-7.9-1.1c-5.5-0.7-17.9-2.5-40.4-2.5c-24.6,0-45.7,6.7-60.2,21.9c-14.6,15.2-21.8,37.8-21.8,66.9
	v24.3h-47.2V267h47.2v117.5C85.2,367.1,23.2,294.9,23.2,207.2C23.2,106.6,104.5,25.1,205,25.1z"/>
</svg>
