<?xml version="1.0" encoding="utf-8"?>
<!-- Generator: Adobe Illustrator 27.0.1, SVG Export Plug-In . SVG Version: 6.00 Build 0)  -->
<svg version="1.1" id="Capa_1" xmlns="http://www.w3.org/2000/svg" xmlns:xlink="http://www.w3.org/1999/xlink" x="0px" y="0px"
	 viewBox="0 0 410.3 408.6" style="enable-background:new 0 0 410.3 408.6;" xml:space="preserve">
<style type="text/css">
	.st0{fill:#D8FF00;}
</style>
<path class="st0" d="M86.9,8.6c-44.1,0-80,35.9-80,80v240c0,44.1,35.9,80,80,80h240c44.1,0,80-35.9,80-80v-240c0-44.1-35.9-80-80-80
	H86.9z M86.9,20.9h240c37.3,0,67.7,30.4,67.7,67.7v240c0,37.3-30.4,67.7-67.7,67.7h-240c-37.3,0-67.7-30.4-67.7-67.7v-240
	C19.2,51.2,49.6,20.9,86.9,20.9z M104.4,39.3c-36.8,0-66.7,29.9-66.7,66.7v205.1c0,36.8,29.9,66.7,66.7,66.7h205.1
	c36.8,0,66.7-29.9,66.7-66.7V196.3c0-1.7-1.4-3.1-3.1-3.1c-1.7,0-3.1,1.4-3.1,3.1v114.8c0,33.4-27.2,60.5-60.5,60.5H104.4
	c-33.4,0-60.5-27.2-60.5-60.5V106c0-33.4,27.2-60.5,60.5-60.5h207.2c1.7,0,3.1-1.4,3.1-3.1c0-1.7-1.4-3.1-3.1-3.1H104.4z
	 M204.1,113.4c-24.5,0-27.5,0.1-37.1,0.6c-9,0.4-16,1.7-22.7,4.3c-6.7,2.6-11.9,6-16.9,10.9c-5,5-8.4,10.2-11,16.8
	c-2.6,6.7-4,13.6-4.4,22.7c-0.4,9.4-0.6,12.6-0.6,36.7c0,24.3,0.1,27.3,0.6,36.8c0.4,8.9,1.7,15.9,4.4,22.6c2.6,6.6,6,11.8,11,16.8
	c5,5,10.2,8.4,16.9,10.9c6.7,2.6,13.7,3.9,22.9,4.3c9.4,0.4,12.6,0.5,36.9,0.5c24.5,0,27.5-0.1,37.1-0.6c9-0.4,16-1.7,22.7-4.3
	c6.7-2.6,11.9-6,16.9-10.9c5-5,8.4-10.2,11-16.8c2.6-6.7,4-13.6,4.4-22.7c0.4-9.4,0.6-12.6,0.6-36.7c0-24.3-0.1-27.3-0.6-36.8
	c-0.4-8.9-1.7-15.9-4.4-22.6c-2.6-6.6-6-11.8-11-16.8c-5-5-10.2-8.3-16.9-10.9c-6.7-2.6-13.7-3.9-22.9-4.3
	C231.5,113.6,228.4,113.4,204.1,113.4z M204.1,119.6c24.1,0,27.3,0.1,36.8,0.5c8.3,0.4,14.7,1.6,20.7,3.9c5.8,2.3,10.4,5.2,14.8,9.5
	c4.4,4.4,7.4,8.9,9.6,14.7v0c2.4,6,3.6,12.4,3.9,20.6c0.5,9.4,0.6,12.4,0.6,36.6c0,24-0.2,27.1-0.6,36.6c-0.4,8.2-1.6,14.6-3.9,20.6
	c-2.3,5.8-5.2,10.3-9.6,14.7c-4.4,4.4-8.9,7.3-14.8,9.5c-6.1,2.4-12.5,3.6-20.8,3.9c-9.5,0.5-12.4,0.5-36.8,0.5
	c-24.1,0-27.3-0.1-36.8-0.5c-8.3-0.4-14.7-1.6-20.7-3.9c-5.8-2.3-10.4-5.2-14.8-9.5c-4.4-4.4-7.3-8.9-9.6-14.7
	c-2.4-6-3.6-12.4-3.9-20.6c-0.5-9.4-0.6-12.4-0.6-36.6c0-24,0.1-27.1,0.6-36.6c0.4-8.2,1.6-14.6,3.9-20.6c2.3-5.8,5.2-10.3,9.6-14.7
	c4.4-4.4,8.9-7.3,14.8-9.5c6.1-2.4,12.5-3.6,20.8-3.9C176.8,119.6,179.8,119.6,204.1,119.6z M373.1,131.6c-1.7,0-3.1,1.4-3.1,3.1
	V147c0,1.7,1.4,3.1,3.1,3.1c1.7,0,3.1-1.4,3.1-3.1v-12.3C376.2,133,374.8,131.6,373.1,131.6z M253.5,141.1
	c-7.6,0-13.8,6.2-13.8,13.7s6.2,13.7,13.8,13.7c7.6,0,13.8-6.2,13.8-13.7C267.3,147.3,261.1,141.1,253.5,141.1z M253.5,147.3
	c4.2,0,7.6,3.4,7.6,7.6c0,4.2-3.4,7.6-7.6,7.6c-4.2,0-7.6-3.4-7.6-7.6S249.3,147.3,253.5,147.3z M373.1,156.3
	c-1.7,0-3.1,1.4-3.1,3.1v24.6c0,1.7,1.4,3.1,3.1,3.1c1.7,0,3.1-1.4,3.1-3.1v-24.6C376.2,157.6,374.8,156.3,373.1,156.3z M204,156.7
	c-27.1,0-49.1,21.9-49.1,48.8s22,48.8,49.1,48.8s49.1-21.9,49.1-48.8C253.1,178.5,231.1,156.7,204,156.7z M204,162.8
	c23.7,0,42.9,19.1,42.9,42.6s-19.3,42.6-42.9,42.6s-42.9-19.1-42.9-42.6C161.1,181.9,180.4,162.8,204,162.8z"/>
</svg>
