<?xml version="1.0" encoding="utf-8"?>
<!-- Generator: Adobe Illustrator 27.0.1, SVG Export Plug-In . SVG Version: 6.00 Build 0)  -->
<svg version="1.1" id="Capa_1" xmlns="http://www.w3.org/2000/svg" xmlns:xlink="http://www.w3.org/1999/xlink" x="0px" y="0px"
	 viewBox="0 0 478.2 478.2" style="enable-background:new 0 0 478.2 478.2;" xml:space="preserve">
<style type="text/css">
	.st0{fill:#D8FF00;}
</style>
<g>
	<path id="WhatsApp" class="st0" d="M464.1,233.3c0,121-98.9,219.3-220.9,219.3c-38.7,0-75.1-10-106.7-27.3L14.1,464.1L54,346.5
		c-20.1-33-31.7-71.8-31.7-113.1c0-121.1,98.9-219.3,221-219.3C365.2,14.1,464.1,112.2,464.1,233.3z M243.2,49
		C140.9,49,57.5,131.6,57.5,233.4c0,40.4,13.2,77.7,35.4,108.1l-23.1,68.2l71.3-22.6c29.3,19.3,64.5,30.4,102.2,30.4
		c102.3,0,185.7-82.6,185.7-184.3C428.9,131.6,345.5,49,243.2,49z M354.7,283.8c-1.3-2.2-4.9-3.5-10.3-6.4
		c-5.6-2.6-32.1-15.5-37.2-17.3c-4.9-1.8-8.5-2.6-12,2.6c-3.8,5.3-14,17.5-17.1,21.1c-3.3,3.6-6.5,4-11.9,1.3
		c-5.3-2.6-22.9-8.4-43.5-26.7c-16.1-14.1-27-31.7-30.1-37.2c-3.2-5.5-0.4-8.3,2.4-10.9c2.5-2.4,5.5-6.3,8.1-9.4
		c2.8-3.1,3.7-5.3,5.5-8.8c1.8-3.7,0.8-6.8-0.5-9.5c-1.3-2.6-12.2-29.1-16.8-39.8c-4.5-10.7-8.9-8.9-12.1-8.9
		c-3.3,0-6.8-0.5-10.4-0.5c-3.6,0-9.4,1.3-14.5,6.8c-4.9,5.4-18.9,18.4-18.9,44.8s19.4,52,22.2,55.6c2.7,3.6,37.4,59.5,92.5,81
		c55.1,21.5,55.1,14.4,65,13.6c9.8-0.9,32.1-13.1,36.5-25.5C356,296.7,356,286.1,354.7,283.8z"/>
</g>
</svg>
