<?xml version="1.0" encoding="utf-8"?>
<!-- Generator: Adobe Illustrator 27.0.1, SVG Export Plug-In . SVG Version: 6.00 Build 0)  -->
<svg version="1.1" id="Capa_1" xmlns="http://www.w3.org/2000/svg" xmlns:xlink="http://www.w3.org/1999/xlink" x="0px" y="0px"
	 viewBox="0 0 514 411" style="enable-background:new 0 0 514 411;" xml:space="preserve">
<style type="text/css">
	.st0{fill:#D8FF00;}
</style>
<path class="st0" d="M256.8,5C180.2,5,108.3,11.2,70,20c-25.5,6.2-47.6,25-52.2,53.8c-4.6,30-9.3,75-9.3,131.2S13.2,305,19,336.2
	c4.6,27.5,26.7,47.5,52.2,53.8c40.6,8.8,110.2,15,186.8,15s146.2-6.2,186.8-15c25.5-6.2,47.6-25,52.2-53.8
	c4.6-31.2,10.4-76.2,11.6-132.5c0-56.2-5.8-101.3-11.6-132.5c-4.6-27.5-26.7-47.5-52.2-53.8C404.1,11.2,333.4,5,256.8,5z M256.8,30
	c83.5,0,150.8,7.5,183.3,13.8c17.4,5,31.3,17.5,33.6,33.7c7,40,11.6,82.5,11.6,126.3c-1.2,53.7-7,97.5-11.6,128.7
	c-3.5,23.8-26.7,31.2-33.6,33.8c-41.8,8.8-111.4,15-181,15s-140.4-5-181-15c-17.4-5-31.3-17.5-33.6-33.8
	c-9.3-35-12.8-81.2-12.8-127.5c0-57.5,4.6-100,9.3-126.3C44.5,55,68.9,47.5,74.7,45C113,36.2,183.7,30,256.8,30z M194.2,105v200
	l162.4-100L194.2,105z M217.4,147.5l92.8,57.5l-92.8,57.5V147.5z"/>
</svg>
